<?xml version="1.0" encoding="UTF-8"?>
<svg version="1.1" xmlns="http://www.w3.org/2000/svg" width="551" height="453">
<path d="M0 0 C4.53969135 2.58121616 6.99192673 5.38816841 8.78344727 10.34448242 C10.05845439 15.03983044 9.88131377 19.65788051 9.77734375 24.48828125 C9.75691795 26.47070063 9.73674352 28.45312261 9.71679688 30.43554688 C9.67341576 33.52933095 9.62503603 36.62293547 9.57104492 39.71655273 C9.52238259 42.72378906 9.49276722 45.73079084 9.46484375 48.73828125 C9.44308578 49.64902908 9.42132782 50.55977692 9.39891052 51.49812317 C9.34745244 58.25642716 9.76522911 65.94392824 14.37779236 71.26094055 C24.31573615 80.08605682 41.10639474 77.70174601 53.4765625 77.140625 C65.86951058 76.02605579 78.08067264 71.27652417 87.6875 63.3125 C88.3475 63.3125 89.0075 63.3125 89.6875 63.3125 C89.6875 62.6525 89.6875 61.9925 89.6875 61.3125 C90.99879922 59.95749081 92.33441687 58.62578657 93.6875 57.3125 C96.00317384 53.83898925 96.28337577 52.39850528 95.6875 48.3125 C89.67845071 42.90435563 79.551867 41.75378492 71.75 41.8125 C70.89245117 41.81386963 70.03490234 41.81523926 69.15136719 41.81665039 C56.13844897 42.10084824 43.22145129 44.4438476 30.38560486 46.44894409 C25.49466784 47.20786533 20.61256253 47.82779362 15.6875 48.3125 C15.7890625 46.0625 15.7890625 46.0625 16.6875 43.3125 C18.83102216 41.71844408 20.72016358 40.52821271 23.0625 39.3125 C23.69373779 38.97001221 24.32497559 38.62752441 24.9753418 38.2746582 C33.27160017 33.83079488 41.67513594 30.03958423 50.6875 27.3125 C51.31495117 27.11624023 51.94240234 26.91998047 52.58886719 26.71777344 C69.36220913 21.47658652 69.36220913 21.47658652 76.6875 21.3125 C77.95722656 21.27382812 79.22695313 21.23515625 80.53515625 21.1953125 C81.960881 21.16865885 83.38666993 21.14525097 84.8125 21.125 C85.48224854 21.11170654 86.15199707 21.09841309 86.84204102 21.0847168 C93.44720916 21.07575014 99.32329303 22.16335008 104.34375 26.703125 C106.95867183 29.83494999 108.27933545 33.52482475 109.6875 37.3125 C110.20828125 38.51519531 110.7290625 39.71789062 111.265625 40.95703125 C114.4306109 49.46485497 114.38535301 61.10454662 111.5859375 69.69140625 C108.2313081 75.56649249 103.20856051 81.13881316 96.6875 83.3125 C97.3475 86.9425 98.0075 90.5725 98.6875 94.3125 C98.0275 94.3125 97.3675 94.3125 96.6875 94.3125 C93.6875 88.5625 93.6875 88.5625 93.6875 86.3125 C92.9140625 85.94125 92.9140625 85.94125 92.125 85.5625 C89.6875 84.3125 89.6875 84.3125 86.6875 82.1875 C81.79011607 79.33424154 76.17844399 79.62211815 70.6875 80.3125 C69.6975 80.9725 68.7075 81.6325 67.6875 82.3125 C66.6975 82.3125 65.7075 82.3125 64.6875 82.3125 C64.6875 82.9725 64.6875 83.6325 64.6875 84.3125 C64.089375 84.869375 63.49125 85.42625 62.875 86 C59.12421402 89.96511661 57.80365713 93.8489202 57.375 99.25 C57.53120942 103.45121127 58.53567133 107.28109966 59.6875 111.3125 C58.6975 111.3125 57.7075 111.3125 56.6875 111.3125 C53.3642163 104.33953866 52.24606502 99.03761213 52.6875 91.3125 C47.4075 90.9825 42.1275 90.6525 36.6875 90.3125 C36.790625 92.1275 36.89375 93.9425 37 95.8125 C37.0210398 101.73169625 35.8759286 105.99714932 31.6875 110.3125 C31.0275 110.3125 30.3675 110.3125 29.6875 110.3125 C30.5625 104.5625 30.5625 104.5625 31.6875 102.3125 C32.09660193 96.27824657 31.33684544 92.71716469 28.6875 87.3125 C28.3575 86.3225 28.0275 85.3325 27.6875 84.3125 C24.83770361 83.19569294 24.83770361 83.19569294 21.6875 82.3125 C21.05328125 81.95671875 20.4190625 81.6009375 19.765625 81.234375 C17.28574234 80.13427668 15.91378255 80.24182157 13.25 80.625 C12.46882812 80.73328125 11.68765625 80.8415625 10.8828125 80.953125 C8.46990381 81.34812073 6.07282443 81.77387836 3.6875 82.3125 C3.6875 82.9725 3.6875 83.6325 3.6875 84.3125 C3.089375 84.89 2.49125 85.4675 1.875 86.0625 C-1.74281282 89.7836789 -3.482411 93.31926618 -3.625 98.5 C-3.61705628 102.38094492 -3.61705628 102.38094492 -1.3125 105.3125 C-1.3125 106.3025 -1.3125 107.2925 -1.3125 108.3125 C-3.66067259 107.37323096 -5.03417472 106.7576195 -6.39453125 104.58203125 C-9.79439934 96.17639993 -8.19448777 87.58396773 -5.3125 79.3125 C-6.034375 78.69375 -6.75625 78.075 -7.5 77.4375 C-13.697989 71.12420468 -15.91708567 63.84528521 -15.95532227 55.15283203 C-15.92881592 54.07114746 -15.90230957 52.98946289 -15.875 51.875 C-15.85554321 50.17126221 -15.85554321 50.17126221 -15.83569336 48.43310547 C-15.62249003 39.80414125 -14.33611234 31.78079214 -12.26953125 23.42578125 C-10.96058209 18.1121151 -10.53042546 12.77153266 -10.3125 7.3125 C-11.385 7.93125 -12.4575 8.55 -13.5625 9.1875 C-16.11030984 10.6448679 -18.66509355 12.04174491 -21.3125 13.3125 C-21.3125 13.9725 -21.3125 14.6325 -21.3125 15.3125 C-22.9394353 17.04111876 -24.59700594 18.67461162 -26.3125 20.3125 C-27.73340163 21.70402208 -29.14987403 23.1000775 -30.5625 24.5 C-31.24828125 25.17417969 -31.9340625 25.84835938 -32.640625 26.54296875 C-34.38699111 28.22048995 -34.38699111 28.22048995 -35.3125 30.3125 C-35.9725 30.3125 -36.6325 30.3125 -37.3125 30.3125 C-37.51488281 30.8590625 -37.71726562 31.405625 -37.92578125 31.96875 C-39.865679 35.24745041 -42.60181389 37.41422649 -45.5 39.8125 C-46.05236328 40.28558594 -46.60472656 40.75867188 -47.17382812 41.24609375 C-54.88394475 47.71148772 -62.66338997 51.83613741 -72.92578125 51.63671875 C-76.4444097 51.15873813 -78.54507035 49.46494528 -81.3125 47.3125 C-83.61018135 46.19407669 -85.93750715 45.26249714 -88.3125 44.3125 C-88.60125 44.951875 -88.89 45.59125 -89.1875 46.25 C-90.3125 48.3125 -90.3125 48.3125 -92.3125 49.3125 C-91.99796875 50.02792969 -91.6834375 50.74335938 -91.359375 51.48046875 C-88.31578012 59.7140743 -88.86758506 67.87935568 -92.4375 75.8125 C-92.72625 76.3075 -93.015 76.8025 -93.3125 77.3125 C-93.9725 77.3125 -94.6325 77.3125 -95.3125 77.3125 C-95.36277344 77.93125 -95.41304688 78.55 -95.46484375 79.1875 C-96.3125 81.3125 -96.3125 81.3125 -98.75390625 82.4375 C-99.78386719 82.72625 -100.81382812 83.015 -101.875 83.3125 C-112.98054431 86.68500219 -121.95075336 92.21018703 -130.3125 100.3125 C-130.6425 100.9725 -130.9725 101.6325 -131.3125 102.3125 C-141.55385936 102.8823438 -147.89045943 101.71456467 -156.5 96.3125 C-161.65483227 91.57640761 -164.82234053 84.77151153 -165.79296875 77.921875 C-165.95124667 71.44001712 -165.34635203 66.0663573 -162.3125 60.3125 C-158.90188027 57.22386186 -155.39359203 55.21440836 -151.25 53.25 C-147.61363851 51.52123798 -144.52284448 49.72204585 -141.3125 47.3125 C-140.6525 47.3125 -139.9925 47.3125 -139.3125 47.3125 C-139.065 46.735 -138.8175 46.1575 -138.5625 45.5625 C-137.12950012 42.98310021 -135.52825324 41.25128408 -133.3125 39.3125 C-132.6525 39.3125 -131.9925 39.3125 -131.3125 39.3125 C-131.3125 38.3225 -131.3125 37.3325 -131.3125 36.3125 C-130.19875 36.003125 -129.085 35.69375 -127.9375 35.375 C-124.5179845 34.48923517 -124.5179845 34.48923517 -122.3125 33.3125 C-114.41221967 32.63121546 -108.22798636 33.11579857 -101.88671875 38.29296875 C-99.65096498 40.25751133 -97.4650878 42.25753523 -95.3125 44.3125 C-95.01601562 43.51585937 -94.71953125 42.71921875 -94.4140625 41.8984375 C-93.3125 39.3125 -93.3125 39.3125 -91.6875 37.9375 C-88.03469416 36.97623531 -84.86718848 37.18759858 -81.3125 38.3125 C-78.42861959 40.07572813 -75.90111848 42.14862158 -73.3125 44.3125 C-69.8038604 46.65159307 -68.44160567 46.72541057 -64.3125 46.3125 C-62.61530873 45.36523046 -60.94314764 44.37021739 -59.3125 43.3125 C-58.3225 43.3125 -57.3325 43.3125 -56.3125 43.3125 C-55.9825 42.3225 -55.6525 41.3325 -55.3125 40.3125 C-52.875 37.625 -52.875 37.625 -50.3125 35.3125 C-49.6525 35.3125 -48.9925 35.3125 -48.3125 35.3125 C-48.03849365 34.73056885 -47.7644873 34.1486377 -47.48217773 33.54907227 C-46.33876035 31.36271312 -45.0773175 29.49829386 -43.59765625 27.52734375 C-42.81551758 26.48416992 -42.81551758 26.48416992 -42.01757812 25.41992188 C-41.20450195 24.34581055 -41.20450195 24.34581055 -40.375 23.25 C-39.83681641 22.53005859 -39.29863281 21.81011719 -38.74414062 21.06835938 C-36.39839681 17.95323472 -34.08152806 15.06009523 -31.3125 12.3125 C-30.631875 11.425625 -29.95125 10.53875 -29.25 9.625 C-28.2909375 8.4803125 -28.2909375 8.4803125 -27.3125 7.3125 C-26.6525 7.3125 -25.9925 7.3125 -25.3125 7.3125 C-25.3125 6.6525 -25.3125 5.9925 -25.3125 5.3125 C-23.44921875 3.83984375 -23.44921875 3.83984375 -21 2.25 C-20.19949219 1.72277344 -19.39898437 1.19554687 -18.57421875 0.65234375 C-12.74108667 -2.80320772 -6.09929965 -2.83263354 0 0 Z M-125.3125 36.3125 C-124.3125 38.3125 -124.3125 38.3125 -124.3125 38.3125 Z M-128.3125 44.3125 C-128.3125 45.9625 -128.3125 47.6125 -128.3125 49.3125 C-127.9825 49.3125 -127.6525 49.3125 -127.3125 49.3125 C-127.3125 47.6625 -127.3125 46.0125 -127.3125 44.3125 C-127.6425 44.3125 -127.9725 44.3125 -128.3125 44.3125 Z M-128.3125 52.3125 C-128.3125 53.9625 -128.3125 55.6125 -128.3125 57.3125 C-127.9825 57.3125 -127.6525 57.3125 -127.3125 57.3125 C-127.3125 55.6625 -127.3125 54.0125 -127.3125 52.3125 C-127.6425 52.3125 -127.9725 52.3125 -128.3125 52.3125 Z M-116.3125 55.3125 C-115.3125 58.3125 -115.3125 58.3125 -115.3125 58.3125 Z M-113.3125 61.3125 C-113.3125 61.6425 -113.3125 61.9725 -113.3125 62.3125 C-111.6625 62.3125 -110.0125 62.3125 -108.3125 62.3125 C-108.3125 61.9825 -108.3125 61.6525 -108.3125 61.3125 C-109.9625 61.3125 -111.6125 61.3125 -113.3125 61.3125 Z M-124.3125 64.3125 C-123.3125 66.3125 -123.3125 66.3125 -123.3125 66.3125 Z M-104.3125 77.3125 C-104.3125 77.6425 -104.3125 77.9725 -104.3125 78.3125 C-102.3325 78.3125 -100.3525 78.3125 -98.3125 78.3125 C-98.3125 77.9825 -98.3125 77.6525 -98.3125 77.3125 C-100.2925 77.3125 -102.2725 77.3125 -104.3125 77.3125 Z " fill="#E91E26" transform="translate(291.3125,153.6875)"/>
<path d="M0 0 C0.99 0.66 1.98 1.32 3 2 C2.67 3.65 2.34 5.3 2 7 C1.34 7 0.68 7 0 7 C0 10.3 0 13.6 0 17 C0.99 17.33 1.98 17.66 3 18 C2.34 20.64 1.68 23.28 1 26 C1.99 25.67 2.98 25.34 4 25 C4 25.66 4 26.32 4 27 C5.32 27.33 6.64 27.66 8 28 C8 26.68 8 25.36 8 24 C9.32 24 10.64 24 12 24 C12 23.34 12 22.68 12 22 C13.65 21.67 15.3 21.34 17 21 C16.8453125 19.14375 16.8453125 19.14375 16.6875 17.25 C16.6875 13.79125407 16.78690951 13.24353199 19.1875 10.5 C22.17528938 8.90651233 23.67935473 8.46151698 27 9 C29 11 29 11 29.125 13.625 C29.08375 14.40875 29.0425 15.1925 29 16 C27.68 16 26.36 16 25 16 C25 17.32 25 18.64 25 20 C27.60416349 17.81331378 27.60416349 17.81331378 30 15 C30.16713569 12.37468476 30.16713569 12.37468476 30 10 C33 8 33 8 35.5625 8.0625 C38 9 38 9 39.10546875 11.2265625 C41.80559477 19.59813225 41.47775244 27.49388347 37.875 35.5 C37.58625 35.995 37.2975 36.49 37 37 C36.34 37 35.68 37 35 37 C34.94972656 37.61875 34.89945312 38.2375 34.84765625 38.875 C34 41 34 41 31.55859375 42.125 C30.52863281 42.41375 29.49867188 42.7025 28.4375 43 C17.33195569 46.37250219 8.36174664 51.89768703 0 60 C-0.495 60.99 -0.495 60.99 -1 62 C-11.24135936 62.5698438 -17.57795943 61.40206467 -26.1875 56 C-31.34233227 51.26390761 -34.50984053 44.45901153 -35.48046875 37.609375 C-35.66006528 30.25446944 -35.19403037 23.38760797 -29.9375 17.8125 C-15.65517241 9 -15.65517241 9 -8 9 C-7.67 7.68 -7.34 6.36 -7 5 C-6.01 5 -5.02 5 -4 5 C-3.896875 4.360625 -3.79375 3.72125 -3.6875 3.0625 C-3.460625 2.381875 -3.23375 1.70125 -3 1 C-2.01 0.67 -1.02 0.34 0 0 Z M17 21 C17 21.33 17 21.66 17 22 C18.65 22 20.3 22 22 22 C22 21.67 22 21.34 22 21 C20.35 21 18.7 21 17 21 Z M26 37 C26 37.33 26 37.66 26 38 C27.98 38 29.96 38 32 38 C32 37.67 32 37.34 32 37 C30.02 37 28.04 37 26 37 Z " fill="#EC1C24" transform="translate(161,194)"/>
<path d="M0 0 C1.42572475 -0.02665365 2.85151368 -0.05006153 4.27734375 -0.0703125 C4.94709229 -0.08360596 5.61684082 -0.09689941 6.30688477 -0.1105957 C12.42194844 -0.11889704 17.30818969 1.04422514 22.58984375 4.1171875 C25.8330248 7.91408239 25.69993915 10.07942585 25.4609375 14.91015625 C25.15234375 17.1171875 25.15234375 17.1171875 24.15234375 19.1171875 C22.66734375 18.6221875 22.66734375 18.6221875 21.15234375 18.1171875 C20.65734375 20.5921875 20.65734375 20.5921875 20.15234375 23.1171875 C16.03186842 24.25387035 12.85781197 24.13683193 8.71484375 23.1796875 C7.95300781 23.00566406 7.19117188 22.83164063 6.40625 22.65234375 C5.01460987 22.32191966 3.62667058 21.97479524 2.24609375 21.60083008 C-14.35843544 17.76529226 -33.61503473 22.67107152 -50.14964294 25.25360107 C-55.04053626 26.01262423 -59.92262328 26.63248403 -64.84765625 27.1171875 C-64.74609375 24.8671875 -64.74609375 24.8671875 -63.84765625 22.1171875 C-61.70413409 20.52313158 -59.81499267 19.33290021 -57.47265625 18.1171875 C-56.52579956 17.60345581 -56.52579956 17.60345581 -55.55981445 17.0793457 C-47.26355608 12.63548238 -38.86002031 8.84427173 -29.84765625 6.1171875 C-29.22020508 5.92092773 -28.59275391 5.72466797 -27.94628906 5.52246094 C-18.49829005 2.57023299 -9.92365724 0.30224337 0 0 Z " fill="#EA1D26" transform="translate(371.84765625,174.8828125)"/>
<path d="M0 0 C0.5878125 0.7115625 0.5878125 0.7115625 1.1875 1.4375 C3.40808374 3.35179633 5.13375709 3.61266988 8 4 C8 3.34 8 2.68 8 2 C9.32 2 10.64 2 12 2 C12 2.66 12 3.32 12 4 C4.57142857 8.28571429 4.57142857 8.28571429 1 10 C1 10.66 1 11.32 1 12 C-0.6269353 13.72861876 -2.28450594 15.36211162 -4 17 C-5.42090163 18.39152208 -6.83737403 19.7875775 -8.25 21.1875 C-8.93578125 21.86167969 -9.6215625 22.53585938 -10.328125 23.23046875 C-12.07449111 24.90798995 -12.07449111 24.90798995 -13 27 C-13.66 27 -14.32 27 -15 27 C-15.20238281 27.5465625 -15.40476562 28.093125 -15.61328125 28.65625 C-17.553179 31.93495041 -20.28931389 34.10172649 -23.1875 36.5 C-23.73986328 36.97308594 -24.29222656 37.44617188 -24.86132812 37.93359375 C-32.57144475 44.39898772 -40.35088997 48.52363741 -50.61328125 48.32421875 C-54.1319097 47.84623813 -56.23257035 46.15244528 -59 44 C-61.29768135 42.88157669 -63.62500715 41.94999714 -66 41 C-66.2784375 41.9590625 -66.2784375 41.9590625 -66.5625 42.9375 C-68 45 -68 45 -71.4375 45.6875 C-73.2009375 45.8421875 -73.2009375 45.8421875 -75 46 C-75.99 46.33 -76.98 46.66 -78 47 C-77.731875 47.721875 -77.46375 48.44375 -77.1875 49.1875 C-77 52 -77 52 -79.4375 54.8125 C-80.283125 55.534375 -81.12875 56.25625 -82 57 C-82.495 55.02 -82.495 55.02 -83 53 C-81.68 53 -80.36 53 -79 53 C-79.66 51.02 -80.32 49.04 -81 47 C-83.80997777 46.76583519 -85.65550914 46.84689295 -88.25 48 C-90.94865611 51.08417841 -90.73510524 53.96035497 -91 58 C-93.475 58.495 -93.475 58.495 -96 59 C-96 59.66 -96 60.32 -96 61 C-97.32 61 -98.64 61 -100 61 C-99.67 62.65 -99.34 64.3 -99 66 C-99.94875 65.505 -100.8975 65.01 -101.875 64.5 C-104.72278166 62.85575631 -104.72278166 62.85575631 -107 63 C-106.67 60.03 -106.34 57.06 -106 54 C-106.66 54 -107.32 54 -108 54 C-108 50.7 -108 47.4 -108 44 C-107.34 44 -106.68 44 -106 44 C-106 42.35 -106 40.7 -106 39 C-107.65 38.67 -109.3 38.34 -111 38 C-111.1546875 38.9590625 -111.1546875 38.9590625 -111.3125 39.9375 C-111.539375 40.618125 -111.76625 41.29875 -112 42 C-113.485 42.495 -113.485 42.495 -115 43 C-115.33 43.99 -115.66 44.98 -116 46 C-119.5625 47.1875 -119.5625 47.1875 -123 48 C-121.71034824 46.62437146 -120.37310707 45.29233607 -119 44 C-118.34 44 -117.68 44 -117 44 C-116.7525 43.4225 -116.505 42.845 -116.25 42.25 C-114.81700012 39.67060021 -113.21575324 37.93878408 -111 36 C-110.34 36 -109.68 36 -109 36 C-109 35.01 -109 34.02 -109 33 C-107.88625 32.690625 -106.7725 32.38125 -105.625 32.0625 C-102.2054845 31.17673517 -102.2054845 31.17673517 -100 30 C-92.09971967 29.31871546 -85.91548636 29.80329857 -79.57421875 34.98046875 C-77.33846498 36.94501133 -75.1525878 38.94503523 -73 41 C-72.70351562 40.20335937 -72.40703125 39.40671875 -72.1015625 38.5859375 C-71 36 -71 36 -69.375 34.625 C-65.72219416 33.66373531 -62.55468848 33.87509858 -59 35 C-56.11611959 36.76322813 -53.58861848 38.83612158 -51 41 C-47.4913604 43.33909307 -46.12910567 43.41291057 -42 43 C-40.30280873 42.05273046 -38.63064764 41.05771739 -37 40 C-36.01 40 -35.02 40 -34 40 C-33.67 39.01 -33.34 38.02 -33 37 C-30.5625 34.3125 -30.5625 34.3125 -28 32 C-27.34 32 -26.68 32 -26 32 C-25.72599365 31.41806885 -25.4519873 30.8361377 -25.16967773 30.23657227 C-24.02626035 28.05021312 -22.7648175 26.18579386 -21.28515625 24.21484375 C-20.50301758 23.17166992 -20.50301758 23.17166992 -19.70507812 22.10742188 C-18.89200195 21.03331055 -18.89200195 21.03331055 -18.0625 19.9375 C-17.52431641 19.21755859 -16.98613281 18.49761719 -16.43164062 17.75585938 C-14.08589681 14.64073472 -11.76902806 11.74759523 -9 9 C-8.319375 8.113125 -7.63875 7.22625 -6.9375 6.3125 C-5.9784375 5.1678125 -5.9784375 5.1678125 -5 4 C-4.34 4 -3.68 4 -3 4 C-3 3.34 -3 2.68 -3 2 C-2.01 1.34 -1.02 0.68 0 0 Z M-103 33 C-102 35 -102 35 -102 35 Z M-94 52 C-93 55 -93 55 -93 55 Z M-102 61 C-101 63 -101 63 -101 63 Z " fill="#E8242D" transform="translate(269,157)"/>
<path d="M0 0 C0 0.99 0 1.98 0 3 C-8.43872175 7.92258769 -16.75673138 11.79849052 -26 15 C-26.91523438 15.34160156 -27.83046875 15.68320313 -28.7734375 16.03515625 C-34.6909069 18.16706646 -40.57322195 19.63484188 -46.75 20.75 C-47.44689941 20.87769775 -48.14379883 21.00539551 -48.86181641 21.13696289 C-55.65251702 22.28215926 -62.08442326 22.55955426 -68.8125 20.75 C-69.72644531 20.51796875 -70.64039063 20.2859375 -71.58203125 20.046875 C-74.44655632 18.80666059 -75.49473286 17.71449842 -77 15 C-76.9368746 11.40185201 -76.83532983 9.00935688 -74.5 6.1875 C-66.83367093 2.54599369 -58.86782857 2.85039265 -50.5625 3.0625 C-39.80712531 3.21683722 -29.4093422 2.51714241 -18.75415039 1.06665039 C-12.45036012 0.21544375 -6.36170528 -0.18977052 0 0 Z " fill="#E62B33" transform="translate(383,204)"/>
<path d="M0 0 C4.4189166 2.42327684 7.39751265 5.19253796 9 10 C9.73127952 16.85724405 9.20583127 21.46601149 5 27 C1.41019762 30.41469007 -1.5447245 31.32436045 -6.375 31.625 C-11.47574657 31.42347187 -14.58158707 30.1234974 -18.40234375 26.765625 C-21.43089952 23.41866361 -22.87178999 20.32845913 -23.12109375 15.80078125 C-22.82186009 10.11534176 -20.93221402 6.10268573 -17 2 C-11.87068379 -1.41954414 -5.96119131 -0.8816773 0 0 Z " fill="#EA1C25" transform="translate(375,238)"/>
<path d="M0 0 C1.3125 2.125 1.3125 2.125 2 4 C2.66 4 3.32 4 4 4 C5.52003714 9.89014391 5.67407948 16.14072182 4 22 C3.34 22 2.68 22 2 22 C1.690625 22.8971875 1.690625 22.8971875 1.375 23.8125 C-0.62109037 26.98809831 -2.48599992 27.72218179 -6 29 C-11.3924219 29.81376549 -15.88637093 29.35204385 -20.49609375 26.3359375 C-23.81419226 23.38843181 -25.32379231 19.71305948 -26.9375 15.625 C-27.06994896 10.06214383 -25.08928439 5.38368558 -21.6875 1.0625 C-15.12810271 -3.97145606 -7.20452704 -4.02605923 0 0 Z " fill="#EA1E26" transform="translate(316,239)"/>
<path d="M0 0 C0.65742188 0.50660156 0.65742188 0.50660156 1.328125 1.0234375 C14.52028473 10.30085064 33.84070543 7.72966249 49.0234375 5.53515625 C52.04054725 5.06613164 52.04054725 5.06613164 55 4 C54.67 5.65 54.34 7.3 54 9 C54.66 9 55.32 9 56 9 C56.33 8.01 56.66 7.02 57 6 C57.495 6.495 57.495 6.495 58 7 C59.68183948 7.23287008 61.3712416 7.41264166 63.0625 7.5625 C63.98160156 7.64628906 64.90070313 7.73007813 65.84765625 7.81640625 C66.55792969 7.87699219 67.26820313 7.93757812 68 8 C68 8.33 68 8.66 68 9 C67.31292969 9.04898438 66.62585938 9.09796875 65.91796875 9.1484375 C65.01691406 9.22320312 64.11585938 9.29796875 63.1875 9.375 C62.29417969 9.44460937 61.40085937 9.51421875 60.48046875 9.5859375 C57.75601501 9.86645036 57.75601501 9.86645036 55 12 C54.01 12 53.02 12 52 12 C52 12.66 52 13.32 52 14 C51.401875 14.556875 50.80375 15.11375 50.1875 15.6875 C46.43671402 19.65261661 45.11615713 23.5364202 44.6875 28.9375 C44.84370942 33.13871127 45.84817133 36.96859966 47 41 C46.01 41 45.02 41 44 41 C40.6767163 34.02703866 39.55856502 28.72511213 40 21 C34.72 20.67 29.44 20.34 24 20 C24.103125 21.815 24.20625 23.63 24.3125 25.5 C24.3335398 31.41919625 23.1884286 35.68464932 19 40 C18.34 40 17.68 40 17 40 C17.875 34.25 17.875 34.25 19 32 C19.40910193 25.96574657 18.64934544 22.40466469 16 17 C15.67 16.01 15.34 15.02 15 14 C12.15020361 12.88319294 12.15020361 12.88319294 9 12 C8.34 11.649375 7.68 11.29875 7 10.9375 C4.39155804 9.71479283 1.83998588 9.3872708 -1 9 C-0.67 8.34 -0.34 7.68 0 7 C1.65 7 3.3 7 5 7 C5 6.34 5 5.68 5 5 C3.35 4.67 1.7 4.34 0 4 C0 2.68 0 1.36 0 0 Z " fill="#EA1B24" transform="translate(304,224)"/>
<path d="M0 0 C2.4375 0.9375 2.4375 0.9375 3.54296875 3.1640625 C6.24309477 11.53563225 5.91525244 19.43138347 2.3125 27.4375 C2.02375 27.9325 1.735 28.4275 1.4375 28.9375 C0.7775 28.9375 0.1175 28.9375 -0.5625 28.9375 C-0.63017578 29.85982422 -0.63017578 29.85982422 -0.69921875 30.80078125 C-1.5625 32.9375 -1.5625 32.9375 -4.14453125 34.16796875 C-5.21058594 34.48378906 -6.27664062 34.79960937 -7.375 35.125 C-8.96248047 35.61033203 -8.96248047 35.61033203 -10.58203125 36.10546875 C-12.90251457 36.75325767 -15.21996569 37.37597241 -17.5625 37.9375 C-16.9025 36.9475 -16.2425 35.9575 -15.5625 34.9375 C-14.2425 34.9375 -12.9225 34.9375 -11.5625 34.9375 C-11.5625 34.2775 -11.5625 33.6175 -11.5625 32.9375 C-10.5725 32.9375 -9.5825 32.9375 -8.5625 32.9375 C-8.8925 31.9475 -9.2225 30.9575 -9.5625 29.9375 C-11.8725 29.6075 -14.1825 29.2775 -16.5625 28.9375 C-16.5625 28.2775 -16.5625 27.6175 -16.5625 26.9375 C-17.284375 26.875625 -18.00625 26.81375 -18.75 26.75 C-22.51365098 25.66272305 -24.10120956 23.94574387 -26.5625 20.9375 C-27.375 18.125 -27.375 18.125 -27.5625 15.9375 C-26.2425 15.9375 -24.9225 15.9375 -23.5625 15.9375 C-23.5625 15.2775 -23.5625 14.6175 -23.5625 13.9375 C-21.9125 13.6075 -20.2625 13.2775 -18.5625 12.9375 C-18.7171875 11.08125 -18.7171875 11.08125 -18.875 9.1875 C-18.875 5.72875407 -18.77559049 5.18103199 -16.375 2.4375 C-13.38721062 0.84401233 -11.88314527 0.39901698 -8.5625 0.9375 C-6.5625 2.9375 -6.5625 2.9375 -6.4375 5.5625 C-6.47875 6.34625 -6.52 7.13 -6.5625 7.9375 C-7.8825 7.9375 -9.2025 7.9375 -10.5625 7.9375 C-10.5625 9.2575 -10.5625 10.5775 -10.5625 11.9375 C-7.95833651 9.75081378 -7.95833651 9.75081378 -5.5625 6.9375 C-5.39536431 4.31218476 -5.39536431 4.31218476 -5.5625 1.9375 C-2.5625 -0.0625 -2.5625 -0.0625 0 0 Z M-18.5625 12.9375 C-18.5625 13.2675 -18.5625 13.5975 -18.5625 13.9375 C-16.9125 13.9375 -15.2625 13.9375 -13.5625 13.9375 C-13.5625 13.6075 -13.5625 13.2775 -13.5625 12.9375 C-15.2125 12.9375 -16.8625 12.9375 -18.5625 12.9375 Z " fill="#E51E27" transform="translate(196.5625,202.0625)"/>
<path d="M0 0 C0.5878125 0.7115625 0.5878125 0.7115625 1.1875 1.4375 C3.40808374 3.35179633 5.13375709 3.61266988 8 4 C8 3.34 8 2.68 8 2 C9.32 2 10.64 2 12 2 C12 2.66 12 3.32 12 4 C4.57142857 8.28571429 4.57142857 8.28571429 1 10 C1 10.66 1 11.32 1 12 C-0.6269353 13.72861876 -2.28450594 15.36211162 -4 17 C-5.42090163 18.39152208 -6.83737403 19.7875775 -8.25 21.1875 C-8.93578125 21.86167969 -9.6215625 22.53585938 -10.328125 23.23046875 C-12.07449111 24.90798995 -12.07449111 24.90798995 -13 27 C-13.66 27 -14.32 27 -15 27 C-15.20238281 27.5465625 -15.40476562 28.093125 -15.61328125 28.65625 C-17.553179 31.93495041 -20.28931389 34.10172649 -23.1875 36.5 C-23.73986328 36.97308594 -24.29222656 37.44617188 -24.86132812 37.93359375 C-32.57144475 44.39898772 -40.35088997 48.52363741 -50.61328125 48.32421875 C-54.1319097 47.84623813 -56.23257035 46.15244528 -59 44 C-61.29768135 42.88157669 -63.62500715 41.94999714 -66 41 C-66.185625 41.639375 -66.37125 42.27875 -66.5625 42.9375 C-68 45 -68 45 -71.4375 45.6875 C-73.2009375 45.8421875 -73.2009375 45.8421875 -75 46 C-76.485 46.495 -76.485 46.495 -78 47 C-77.731875 47.721875 -77.46375 48.44375 -77.1875 49.1875 C-77 52 -77 52 -79.4375 54.8125 C-80.283125 55.534375 -81.12875 56.25625 -82 57 C-82.33 55.68 -82.66 54.36 -83 53 C-81.68 53 -80.36 53 -79 53 C-79.268125 52.113125 -79.53625 51.22625 -79.8125 50.3125 C-80 47 -80 47 -77.625 44.25 C-76.75875 43.5075 -75.8925 42.765 -75 42 C-74.67 41.34 -74.34 40.68 -74 40 C-73.34 40 -72.68 40 -72 40 C-71.9175 39.38125 -71.835 38.7625 -71.75 38.125 C-71 36 -71 36 -69.4375 34.6875 C-65.76221276 33.65088052 -62.59105695 33.86358957 -59 35 C-56.11611959 36.76322813 -53.58861848 38.83612158 -51 41 C-47.4913604 43.33909307 -46.12910567 43.41291057 -42 43 C-40.30280873 42.05273046 -38.63064764 41.05771739 -37 40 C-36.01 40 -35.02 40 -34 40 C-33.67 39.01 -33.34 38.02 -33 37 C-30.5625 34.3125 -30.5625 34.3125 -28 32 C-27.34 32 -26.68 32 -26 32 C-25.72599365 31.41806885 -25.4519873 30.8361377 -25.16967773 30.23657227 C-24.02626035 28.05021312 -22.7648175 26.18579386 -21.28515625 24.21484375 C-20.76373047 23.51939453 -20.24230469 22.82394531 -19.70507812 22.10742188 C-18.89200195 21.03331055 -18.89200195 21.03331055 -18.0625 19.9375 C-17.52431641 19.21755859 -16.98613281 18.49761719 -16.43164062 17.75585938 C-14.08589681 14.64073472 -11.76902806 11.74759523 -9 9 C-8.319375 8.113125 -7.63875 7.22625 -6.9375 6.3125 C-5.9784375 5.1678125 -5.9784375 5.1678125 -5 4 C-4.34 4 -3.68 4 -3 4 C-3 3.34 -3 2.68 -3 2 C-2.01 1.34 -1.02 0.68 0 0 Z " fill="#E2313A" transform="translate(269,157)"/>
<path d="M0 0 C1.45919054 8.22772499 1.45919054 8.22772499 -0.375 11.3125 C-0.91125 11.869375 -1.4475 12.42625 -2 13 C-4.55300012 19.49854576 -2.8352398 26.5766607 -1 33 C-1.99 33 -2.98 33 -4 33 C-7.3232837 26.02703866 -8.44143498 20.72511213 -8 13 C-13.28 12.67 -18.56 12.34 -24 12 C-23.67 10.35 -23.34 8.7 -23 7 C-23.33 6.34 -23.66 5.68 -24 5 C-23.0625 2.875 -23.0625 2.875 -22 1 C-19.27093526 0.83150207 -16.54176829 0.6651397 -13.8125 0.5 C-13.04357422 0.45230469 -12.27464844 0.40460938 -11.48242188 0.35546875 C-7.648496 0.12510411 -3.84309823 -0.0616128 0 0 Z " fill="#EA1C25" transform="translate(352,232)"/>
<path d="M0 0 C2.88388041 1.76322813 5.41138152 3.83612158 8 6 C11.5086396 8.33909307 12.87089433 8.41291057 17 8 C18.69719127 7.05273046 20.36935236 6.05771739 22 5 C22.99 5 23.98 5 25 5 C25.33 4.01 25.66 3.02 26 2 C29.32091002 0.29466783 31.18492784 0 35 0 C33.14386794 5.56839619 26.91572032 8.43586592 21.91015625 11.12109375 C16.78167078 13.31302312 11.51232969 13.85520123 6 13 C2.8125 11.1875 2.8125 11.1875 0 9 C-2.29768135 7.88157669 -4.62500715 6.94999714 -7 6 C-7.185625 6.639375 -7.37125 7.27875 -7.5625 7.9375 C-9 10 -9 10 -12.4375 10.6875 C-13.613125 10.790625 -14.78875 10.89375 -16 11 C-16.99 11.33 -17.98 11.66 -19 12 C-18.731875 12.721875 -18.46375 13.44375 -18.1875 14.1875 C-18 17 -18 17 -20.4375 19.8125 C-21.283125 20.534375 -22.12875 21.25625 -23 22 C-23.33 20.68 -23.66 19.36 -24 18 C-22.68 18 -21.36 18 -20 18 C-20.268125 17.113125 -20.53625 16.22625 -20.8125 15.3125 C-21 12 -21 12 -18.625 9.25 C-17.75875 8.5075 -16.8925 7.765 -16 7 C-15.67 6.34 -15.34 5.68 -15 5 C-14.34 5 -13.68 5 -13 5 C-12.9175 4.38125 -12.835 3.7625 -12.75 3.125 C-12 1 -12 1 -10.4375 -0.3125 C-6.76221276 -1.34911948 -3.59105695 -1.13641043 0 0 Z " fill="#DE3136" transform="translate(210,192)"/>
<path d="M0 0 C0.495 1.485 0.495 1.485 1 3 C0.175 3.61875 -0.65 4.2375 -1.5 4.875 C-2.325 5.57625 -3.15 6.2775 -4 7 C-4 9.42797311 -3.49914315 11.62907005 -3 14 C-2.01 13.67 -1.02 13.34 0 13 C1.89470816 12.9314505 3.7916834 12.91519628 5.6875 12.9375 C6.68136719 12.94652344 7.67523438 12.95554688 8.69921875 12.96484375 C9.83810547 12.98224609 9.83810547 12.98224609 11 13 C11 13.33 11 13.66 11 14 C6.1805215 14.69561459 1.36077145 15.38930678 -3.45922852 16.08129883 C-5.09537032 16.31646097 -6.73143966 16.55212788 -8.36743164 16.78833008 C-10.73304189 17.12978069 -13.0989158 17.46935232 -15.46484375 17.80859375 C-16.18397446 17.91280136 -16.90310516 18.01700897 -17.64402771 18.12437439 C-22.75323217 18.85441824 -27.86828659 19.44946289 -33 20 C-32.8984375 17.75 -32.8984375 17.75 -32 15 C-29.85653819 13.40598896 -27.96727561 12.21569279 -25.625 11 C-24.9952124 10.6582373 -24.3654248 10.31647461 -23.71655273 9.96435547 C-16.09042549 5.87896459 -8.43585432 2.06209772 0 0 Z " fill="#E72129" transform="translate(340,182)"/>
<path d="M0 0 C1.76537109 -0.00386719 1.76537109 -0.00386719 3.56640625 -0.0078125 C6.4375 0.125 6.4375 0.125 7.4375 1.125 C7.71802624 4.70043444 7.66934747 8.2898749 7.6875 11.875 C7.708125 12.87789063 7.72875 13.88078125 7.75 14.9140625 C7.78424193 21.36866649 7.29786724 25.16247678 2.6875 29.9375 C-0.59642206 31.67068109 -2.90369985 31.57432633 -6.5625 31.125 C-9.5 29.4375 -9.5 29.4375 -11.5625 27.125 C-11.875 24.375 -11.875 24.375 -11.5625 22.125 C-10.5725 22.455 -9.5825 22.785 -8.5625 23.125 C-8.2325 24.445 -7.9025 25.765 -7.5625 27.125 C-4.5925 26.795 -1.6225 26.465 1.4375 26.125 C1.4375 25.135 1.4375 24.145 1.4375 23.125 C0.83421875 23.17140625 0.2309375 23.2178125 -0.390625 23.265625 C-6.95935864 23.56227749 -6.95935864 23.56227749 -10.0625 21.3125 C-13.24233956 16.67523397 -13.21249612 11.55896757 -12.5625 6.125 C-9.04280589 0.37616628 -6.47955892 -0.01422516 0 0 Z M-8.5 5.1875 C-9.81023367 8.80991073 -10.04111109 11.29611126 -9.5625 15.125 C-8.19307551 18.23347573 -8.19307551 18.23347573 -5.5625 20.125 C-1.56811826 20.05613135 0.5689229 19.9935771 3.4375 17.125 C3.79526166 14.5612107 3.79526166 14.5612107 3.75 11.6875 C3.76675781 10.71941406 3.78351563 9.75132812 3.80078125 8.75390625 C3.64405843 6.11576154 3.64405843 6.11576154 2.13671875 4.30859375 C-1.51765109 1.76313614 -5.49607947 1.98977815 -8.5 5.1875 Z " fill="#D86066" transform="translate(394.5625,291.875)"/>
<path d="M0 0 C0 0.99 0 1.98 0 3 C-4.49170466 5.78485689 -7.70239726 7.33779966 -13 8 C-17.32678941 8.8436628 -17.32678941 8.8436628 -21 11 C-22.66617115 11.04063832 -24.33388095 11.042721 -26 11 C-26 11.66 -26 12.32 -26 13 C-29.82989106 14.80230168 -32.78121808 15.19622241 -37 15 C-36.67 14.34 -36.34 13.68 -36 13 C-37.65 12.67 -39.3 12.34 -41 12 C-41.625 9.625 -41.625 9.625 -42 7 C-39.60361368 4.60361368 -38.9607459 4.7264804 -35.68359375 4.62109375 C-34.41418945 4.56985352 -34.41418945 4.56985352 -33.11914062 4.51757812 C-32.23419922 4.49115234 -31.34925781 4.46472656 -30.4375 4.4375 C-28.68605308 4.37780601 -26.93473311 4.31421588 -25.18359375 4.24609375 C-24.40556396 4.22216553 -23.62753418 4.1982373 -22.82592773 4.17358398 C-20.98151351 4.19385111 -20.98151351 4.19385111 -20 3 C-18.33382885 2.95936168 -16.66611905 2.957279 -15 3 C-15 2.34 -15 1.68 -15 1 C-10.03926578 -0.32286246 -5.08888488 -0.08893197 0 0 Z " fill="#EC1B23" transform="translate(383,204)"/>
<path d="M0 0 C4.52027193 3.04426477 6.32218996 6.8782641 8 12 C8.76031104 17.97387246 7.23031104 22.08523634 4 27 C1.6641827 29.74802036 0.19087109 30.84896269 -3.40234375 31.3046875 C-7.80009754 31.42092769 -11.19522899 31.39319285 -15 29 C-19.9316131 22.83548362 -19.6108025 16.66006411 -19 9 C-18.70858919 7.65688101 -18.39404009 6.31667054 -18 5 C-17.34 5 -16.68 5 -16 5 C-15.71125 4.360625 -15.4225 3.72125 -15.125 3.0625 C-12.37622334 -1.97692388 -4.96518136 -0.57750104 0 0 Z M-12 4 C-15.48670198 8.16467181 -16.90627779 11.56411178 -17 17 C-16.12758334 20.87581828 -14.8757697 23.99912034 -12.25 27 C-8.98495062 28.45113306 -6.53453276 28.37205608 -3 28 C0.8277901 26.29875996 2.46566023 24.85274743 4 21 C4.68083389 15.75916237 4.5697293 11.29898281 2.4375 6.4375 C-1.80829333 2.19170667 -6.75793567 0.59974206 -12 4 Z " fill="#858585" transform="translate(150,284)"/>
<path d="M0 0 C5.59343314 0.18937863 5.59343314 0.18937863 8.8125 2.75 C10.10142955 5.65009148 10.42027804 7.43194216 10.0625 10.5625 C9.0725 10.5625 8.0825 10.5625 7.0625 10.5625 C6.69125 9.593125 6.32 8.62375 5.9375 7.625 C4.3550712 4.30226471 4.3550712 4.30226471 1.0625 3.5625 C-2.12240007 3.2851499 -2.12240007 3.2851499 -4.9375 5.5625 C-5.18780977 8.14630177 -5.18780977 8.14630177 -4.9375 10.5625 C-3.9475 10.975 -2.9575 11.3875 -1.9375 11.8125 C0.8826072 13.02687269 3.67141784 14.2918882 6.4375 15.625 C7.10523438 15.94597656 7.77296875 16.26695312 8.4609375 16.59765625 C10.0625 17.5625 10.0625 17.5625 11.0625 19.5625 C11.61087085 23.58388622 11.1809148 25.34935336 9.1875 28.9375 C7.33812903 30.96755664 6.34005963 31.51211497 3.609375 32.0078125 C-0.80063295 32.09807582 -3.19298581 32.05884279 -6.9375 29.5625 C-6.9375 28.9025 -6.9375 28.2425 -6.9375 27.5625 C-7.5975 27.5625 -8.2575 27.5625 -8.9375 27.5625 C-9.2675 25.2525 -9.5975 22.9425 -9.9375 20.5625 C-8.9475 20.5625 -7.9575 20.5625 -6.9375 20.5625 C-6.463125 21.531875 -5.98875 22.50125 -5.5 23.5 C-4.23556053 26.36727437 -4.23556053 26.36727437 -2.9375 27.5625 C0.47850593 27.97942853 0.47850593 27.97942853 4.0625 27.5625 C6.19144624 25.94701799 6.19144624 25.94701799 7.0625 23.5625 C7.1215126 21.4890976 7.1215126 21.4890976 6.0625 19.5625 C3.39006042 18.30138073 3.39006042 18.30138073 0.1875 17.5 C-6.86054252 15.52145312 -6.86054252 15.52145312 -8.9375 12.5625 C-9.58134122 5.80216717 -9.58134122 5.80216717 -7.78515625 2.34375 C-5.21635898 -0.13272263 -3.52133449 -0.0043527 0 0 Z " fill="#CE4E55" transform="translate(254.9375,283.4375)"/>
<path d="M0 0 C1.32 0.33 2.64 0.66 4 1 C4.66 0.67 5.32 0.34 6 0 C13.11146121 -0.69948799 13.11146121 -0.69948799 16.9375 2.3125 C20.15993818 6.5114346 20.44092288 9.79710998 20 15 C18.24505919 18.10039543 16.51174333 20.48825667 14 23 C12.125 23.23046875 12.125 23.23046875 10 23.1875 C9.29875 23.18105469 8.5975 23.17460937 7.875 23.16796875 C6 23 6 23 4 22 C3.67 24.97 3.34 27.94 3 31 C2.01 31 1.02 31 0 31 C0 20.77 0 10.54 0 0 Z M4.0625 5.0625 C2.75226633 8.68491073 2.52138891 11.17111126 3 15 C4.36942449 18.10847573 4.36942449 18.10847573 7 20 C10.60581779 20.41349769 10.60581779 20.41349769 14 19 C16.39678341 15.77932229 17.03539203 13.88480086 16.875 9.875 C15.68489755 5.95826216 15.68489755 5.95826216 13 3 C7.95661625 2.17054178 7.95661625 2.17054178 4.0625 5.0625 Z " fill="#DA5A5F" transform="translate(333,292)"/>
<path d="M0 0 C0.99 0.33 1.98 0.66 3 1 C3.66 0.67 4.32 0.34 5 0 C13.98550725 -0.43478261 13.98550725 -0.43478261 17 2 C19.38459863 6.05381767 19.59320432 10.40716052 19 15 C17.43564712 19.0226217 16.61276337 20.59149109 13 23 C10.23979004 23.37167184 7.81147524 23.17850636 5 23 C4.34 22.34 3.68 21.68 3 21 C2.67 24.3 2.34 27.6 2 31 C1.01 31 0.02 31 -1 31 C-1.02465622 26.74585377 -1.04283899 22.49174502 -1.05493164 18.23754883 C-1.05997101 16.78929927 -1.06680253 15.34105483 -1.07543945 13.89282227 C-1.08752247 11.81525412 -1.09323211 9.73775303 -1.09765625 7.66015625 C-1.10289307 6.40855713 -1.10812988 5.15695801 -1.11352539 3.86743164 C-1 1 -1 1 0 0 Z M5 3 C2.87906329 6.47833621 1.98292199 8.50473783 2.125 12.625 C3.19716472 16.85511307 3.19716472 16.85511307 6 20 C9.54177048 20.60285455 11.29288388 20.42799134 14.375 18.5625 C16.78486908 14.76232183 16.63465483 11.37831497 16 7 C15.22303517 4.32265515 15.22303517 4.32265515 13 3 C10.24485856 2.67938196 7.79253064 2.81688324 5 3 Z " fill="#D9666E" transform="translate(311,292)"/>
<path d="M0 0 C2.4375 1.5 2.4375 1.5 4 4 C4.60385912 6.70446305 4.81448364 9.21725459 5 12 C2.36 12 -0.28 12 -3 12 C-2.67 11.01 -2.34 10.02 -2 9 C-0.68 9 0.64 9 2 9 C0.99083177 6.4251788 0.99083177 6.4251788 -1 4 C-4.59919423 3.10407917 -4.59919423 3.10407917 -8 3 C-8.66 4.65 -9.32 6.3 -10 8 C-8.68 8.33 -7.36 8.66 -6 9 C-6 9.99 -6 10.98 -6 12 C-7.65 12 -9.3 12 -11 12 C-9.99425024 15.01565163 -9.99425024 15.01565163 -8 18 C-4.4306283 19.44967902 -4.4306283 19.44967902 -1 20 C-0.34 18.68 0.32 17.36 1 16 C1.99 16 2.98 16 4 16 C3.62120265 18.19702465 3.09789619 19.83875922 1.9375 21.75 C-1.19750288 23.7725825 -4.44537933 23.63747583 -8 23 C-11.44312714 20.8755173 -12.71617547 19.85147359 -14 16 C-14.52442906 10.61451697 -14.56606775 6.35852726 -11 2 C-7.30745291 -0.46169806 -4.28596391 -0.67400239 0 0 Z " fill="#8F8F8F" transform="translate(228,292)"/>
<path d="M0 0 C3.17001928 2.56299431 5.64461548 4.79121772 6.30859375 8.91796875 C6.5638779 13.41251691 6.25831372 16.39969858 3.5 20.0625 C1.08895171 22.51344744 -0.61656533 23.49133674 -4.0625 23.6875 C-8.53087065 22.9073083 -10.23090128 22.60821955 -13 19 C-14.35872648 13.27010743 -14.86341742 7.3177752 -12 2 C-8.71661193 -0.77825144 -4.09664336 -0.82095432 0 0 Z M-9.4375 4.5 C-11.60789167 7.97262668 -11.76216952 11.07249383 -11 15 C-9.56348718 18.08874323 -9.56348718 18.08874323 -7 20 C-3.83151973 20.41809201 -3.83151973 20.41809201 -1 20 C-0.67 19.01 -0.34 18.02 0 17 C0.66 17 1.32 17 2 17 C3.32854177 11.0819503 2.66464729 8.22270869 0 3 C-4.96594574 2.6032918 -4.96594574 2.6032918 -9.4375 4.5 Z " fill="#D16067" transform="translate(302,292)"/>
<path d="M0 0 C1.32 0.33 2.64 0.66 4 1 C4.33 0.67 4.66 0.34 5 0 C12.20570265 -0.59063136 12.20570265 -0.59063136 15.4375 1.8125 C18.3777958 5.92891411 18.12134226 9.83980298 18.0625 14.6875 C18.05798828 15.38939453 18.05347656 16.09128906 18.04882812 16.81445312 C18.03706927 18.54300538 18.01913454 20.27151365 18 22 C16.68 22 15.36 22 14 22 C13.93941406 20.78441406 13.87882813 19.56882812 13.81640625 18.31640625 C13.73201668 16.73175772 13.6473679 15.14712298 13.5625 13.5625 C13.52318359 12.76005859 13.48386719 11.95761719 13.44335938 11.13085938 C13.5945704 7.24760439 13.5945704 7.24760439 12 4 C9.67182036 3.63239269 7.3381615 3.29758419 5 3 C3.89210465 7.05308333 3.66268733 11.07111374 3.4375 15.25 C3.39431641 15.99507813 3.35113281 16.74015625 3.30664062 17.5078125 C3.20103275 19.338349 3.10005799 21.16915176 3 23 C2.01 23 1.02 23 0 23 C0 15.41 0 7.82 0 0 Z " fill="#9C9C9C" transform="translate(160,292)"/>
<path d="M0 0 C0.66 0 1.32 0 2 0 C2 2.97 2 5.94 2 9 C2.99 8.67 3.98 8.34 5 8 C6.9375 7.796875 6.9375 7.796875 9 7.75 C9.680625 7.72421875 10.36125 7.6984375 11.0625 7.671875 C13.64522287 8.10927162 14.38892166 8.95764924 16 11 C16.34057617 13.17651367 16.34057617 13.17651367 16.29296875 15.66796875 C16.28330078 16.56064453 16.27363281 17.45332031 16.26367188 18.37304688 C16.23853516 19.30181641 16.21339844 20.23058594 16.1875 21.1875 C16.16719727 22.59805664 16.16719727 22.59805664 16.14648438 24.03710938 C16.11113096 26.35865038 16.06178674 28.67903653 16 31 C15.01 31 14.02 31 13 31 C12.67 24.4 12.34 17.8 12 11 C9.69 11.33 7.38 11.66 5 12 C3.05543072 16.13418591 2.62971979 19.769997 2.375 24.3125 C2.30023438 25.56675781 2.22546875 26.82101562 2.1484375 28.11328125 C2.09945313 29.06589844 2.05046875 30.01851563 2 31 C1.34 31 0.68 31 0 31 C0 20.77 0 10.54 0 0 Z " fill="#C33238" transform="translate(269,284)"/>
<path d="M0 0 C11.5 -0.25 11.5 -0.25 16 2 C16 8.93 16 15.86 16 23 C15.01 22.67 14.02 22.34 13 22 C12.67 16.06 12.34 10.12 12 4 C9.69 4 7.38 4 5 4 C3.3501993 7.29960141 3.61741639 10.99127884 3.4375 14.625 C3.39431641 15.42679687 3.35113281 16.22859375 3.30664062 17.0546875 C3.20048543 19.0362511 3.09973145 21.01810271 3 23 C2.01 23 1.02 23 0 23 C0 15.41 0 7.82 0 0 Z " fill="#878787" transform="translate(195,292)"/>
<path d="M0 0 C1.8975 -0.061875 3.795 -0.12375 5.75 -0.1875 C7.35101563 -0.23970703 7.35101563 -0.23970703 8.984375 -0.29296875 C12.42137909 0.04093709 13.54649596 0.6300195 16 3 C16.45410156 5.17651367 16.45410156 5.17651367 16.390625 7.66796875 C16.37128906 9.00698242 16.37128906 9.00698242 16.3515625 10.37304688 C16.31804687 11.30181641 16.28453125 12.23058594 16.25 13.1875 C16.23195313 14.12787109 16.21390625 15.06824219 16.1953125 16.03710938 C16.1481655 18.35909889 16.08238231 20.6790369 16 23 C15.01 23 14.02 23 13 23 C12.67 16.4 12.34 9.8 12 3 C7.545 3.495 7.545 3.495 3 4 C3 9.94 3 15.88 3 22 C2.01 22.33 1.02 22.66 0 23 C0 15.41 0 7.82 0 0 Z " fill="#D6656C" transform="translate(363,292)"/>
<path d="M0 0 C3 2.5625 3 2.5625 5 5 C2.375 6.625 2.375 6.625 -1 8 C-4.375 7.1875 -4.375 7.1875 -7 6 C-7.185625 6.639375 -7.37125 7.27875 -7.5625 7.9375 C-9 10 -9 10 -12.4375 10.6875 C-13.613125 10.790625 -14.78875 10.89375 -16 11 C-16.99 11.33 -17.98 11.66 -19 12 C-18.731875 12.721875 -18.46375 13.44375 -18.1875 14.1875 C-18 17 -18 17 -20.4375 19.8125 C-21.283125 20.534375 -22.12875 21.25625 -23 22 C-23.33 20.68 -23.66 19.36 -24 18 C-22.68 18 -21.36 18 -20 18 C-20.268125 17.113125 -20.53625 16.22625 -20.8125 15.3125 C-21 12 -21 12 -18.625 9.25 C-17.75875 8.5075 -16.8925 7.765 -16 7 C-15.67 6.34 -15.34 5.68 -15 5 C-14.34 5 -13.68 5 -13 5 C-12.9175 4.38125 -12.835 3.7625 -12.75 3.125 C-12 1 -12 1 -10.4375 -0.3125 C-6.82006513 -1.33280214 -3.54318078 -1.12259193 0 0 Z " fill="#DC4349" transform="translate(210,192)"/>
<path d="M0 0 C-0.33 0.99 -0.66 1.98 -1 3 C-1.99 3 -2.98 3 -4 3 C-4 4.32 -4 5.64 -4 7 C1.61 7.33 7.22 7.66 13 8 C13 8.33 13 8.66 13 9 C8.77179486 9.67286219 4.54229401 10.33720539 0.3125 11 C-0.88568359 11.19078125 -2.08386719 11.3815625 -3.31835938 11.578125 C-4.47529297 11.75859375 -5.63222656 11.9390625 -6.82421875 12.125 C-8.41882935 12.37636719 -8.41882935 12.37636719 -10.0456543 12.6328125 C-12.73770997 12.96740069 -15.29162531 13.07006305 -18 13 C-17.9296875 10.76953125 -17.9296875 10.76953125 -17 8 C-14.69278848 6.30942174 -12.62729167 5.00357556 -10.125 3.6875 C-9.16787109 3.14899414 -9.16787109 3.14899414 -8.19140625 2.59960938 C-5.27863629 1.00336279 -3.36788587 0 0 0 Z " fill="#DF373C" transform="translate(325,189)"/>
<path d="M0 0 C0.33 1.65 0.66 3.3 1 5 C0.01 5.33 -0.98 5.66 -2 6 C-2 7.32 -2 8.64 -2 10 C-2 10.66 -2 11.32 -2 12 C-3.32 12.33 -4.64 12.66 -6 13 C-6.66 10.36 -7.32 7.72 -8 5 C-9.32 5 -10.64 5 -12 5 C-12 5.66 -12 6.32 -12 7 C-13.65 7 -15.3 7 -17 7 C-17.66 5.68 -18.32 4.36 -19 3 C-12.43345544 0.6969113 -6.96327638 -0.33693273 0 0 Z " fill="#E91B23" transform="translate(289,154)"/>
<path d="M0 0 C0.33 1.32 0.66 2.64 1 4 C2.65 4.33 4.3 4.66 6 5 C5.45859375 5.94359375 5.45859375 5.94359375 4.90625 6.90625 C1.8167677 12.60462847 0.20296587 16.50986491 1 23 C1.66 23.99 2.32 24.98 3 26 C3 26.99 3 27.98 3 29 C0.65707599 28.0628304 -0.72042091 27.44510606 -2.08203125 25.27734375 C-4.92029282 18.2360395 -4.51560958 10.69870482 -1.7890625 3.7421875 C-1.21863339 2.4827252 -0.61832591 1.23665182 0 0 Z " fill="#D92E36" transform="translate(287,233)"/>
<path d="M0 0 C4.875 3.625 4.875 3.625 6 7 C6.73127952 13.85724405 6.20583127 18.46601149 2 24 C-2.53647694 28.31518539 -6.53467762 28.44186075 -12.51171875 28.43359375 C-15 28 -15 28 -18 25 C-13.38 25 -8.76 25 -4 25 C-4 23.68 -4 22.36 -4 21 C-2.68 20.67 -1.36 20.34 0 20 C0 18.68 0 17.36 0 16 C0 15.34 0 14.68 0 14 C0.66 14 1.32 14 2 14 C2 12.68 2 11.36 2 10 C2.99 10 3.98 10 5 10 C4.81171228 7.55519921 4.81171228 7.55519921 4 5 C2.03241727 3.63979849 2.03241727 3.63979849 0 3 C0 2.01 0 1.02 0 0 Z " fill="#D4303A" transform="translate(378,241)"/>
<path d="M0 0 C0.33 0 0.66 0 1 0 C1 2.31 1 4.62 1 7 C1.99 6.67 2.98 6.34 4 6 C3.67 8.64 3.34 11.28 3 14 C3.66 14.33 4.32 14.66 5 15 C5.33 15.99 5.66 16.98 6 18 C8.46369532 19.23184766 10.1894501 19.16732342 12.9375 19.1875 C14.25041016 19.20876953 14.25041016 19.20876953 15.58984375 19.23046875 C18.26244335 19.16663349 18.26244335 19.16663349 21 17 C23.6875 17.375 23.6875 17.375 26 18 C23.13317874 21.06453307 21.2769465 22.73082609 16.984375 23.23828125 C11.40486911 23.42361449 7.26790109 22.79122642 3 19 C0.24241028 15.46290924 -1.77415427 11.51691463 -2 7 C-1.0625 3.1875 -1.0625 3.1875 0 0 Z " fill="#E23842" transform="translate(291,245)"/>
<path d="M0 0 C0.66 0 1.32 0 2 0 C2.433125 0.474375 2.86625 0.94875 3.3125 1.4375 C5.450585 3.41720833 7.1684247 3.55290916 10 4 C10.33 4.33 10.66 4.66 11 5 C12.91451817 5.09983684 14.83288619 5.12967589 16.75 5.125 C17.79671875 5.12757813 18.8434375 5.13015625 19.921875 5.1328125 C22.73223122 5.01155348 25.26639609 4.63784091 28 4 C27.67 5.32 27.34 6.64 27 8 C26.34 8 25.68 8 25 8 C24.93232422 8.92232422 24.93232422 8.92232422 24.86328125 9.86328125 C24 12 24 12 21.41796875 13.23046875 C20.35191406 13.54628906 19.28585938 13.86210937 18.1875 14.1875 C16.60001953 14.67283203 16.60001953 14.67283203 14.98046875 15.16796875 C12.65998543 15.81575767 10.34253431 16.43847241 8 17 C8.66 16.01 9.32 15.02 10 14 C11.32 14 12.64 14 14 14 C14 13.34 14 12.68 14 12 C14.99 12 15.98 12 17 12 C16.67 11.01 16.34 10.02 16 9 C13.69 8.67 11.38 8.34 9 8 C9 7.34 9 6.68 9 6 C8.2575 5.9175 7.515 5.835 6.75 5.75 C3.47402617 4.85655259 2.16408188 3.56483779 0 1 C0 0.67 0 0.34 0 0 Z " fill="#DC444C" transform="translate(171,223)"/>
<path d="M0 0 C1.76537109 -0.00386719 1.76537109 -0.00386719 3.56640625 -0.0078125 C6.4375 0.125 6.4375 0.125 7.4375 1.125 C7.52450342 2.75972882 7.54451063 4.39814055 7.53515625 6.03515625 C7.53193359 7.02451172 7.52871094 8.01386719 7.52539062 9.03320312 C7.51701172 10.07412109 7.50863281 11.11503906 7.5 12.1875 C7.49548828 13.23228516 7.49097656 14.27707031 7.48632812 15.35351562 C7.47449913 17.9440666 7.45801689 20.53450559 7.4375 23.125 C7.1075 23.125 6.7775 23.125 6.4375 23.125 C6.4375 16.195 6.4375 9.265 6.4375 2.125 C5.4475 2.125 4.4575 2.125 3.4375 2.125 C3.7675 3.115 4.0975 4.105 4.4375 5.125 C4.50687062 7.35318441 4.52207084 9.58334524 4.5 11.8125 C4.49097656 12.99199219 4.48195313 14.17148437 4.47265625 15.38671875 C4.46105469 16.29035156 4.44945312 17.19398438 4.4375 18.125 C3.7775 17.795 3.1175 17.465 2.4375 17.125 C2.46070313 16.35414063 2.48390625 15.58328125 2.5078125 14.7890625 C2.52585937 13.78617187 2.54390625 12.78328125 2.5625 11.75 C2.58570313 10.75226563 2.60890625 9.75453125 2.6328125 8.7265625 C2.70966848 5.96237827 2.70966848 5.96237827 0.4375 4.125 C-3.14593976 3.95822718 -3.14593976 3.95822718 -6.5625 4.125 C-8.44641785 7.39045761 -9.05537967 10.40611761 -9.5625 14.125 C-9.8925 14.125 -10.2225 14.125 -10.5625 14.125 C-10.706875 13.361875 -10.85125 12.59875 -11 11.8125 C-11.5257594 9.04327092 -11.5257594 9.04327092 -12.5625 6.125 C-8.70404345 0.53689052 -6.63687075 -0.01457052 0 0 Z " fill="#E48287" transform="translate(394.5625,291.875)"/>
<path d="M0 0 C0.33 0.66 0.66 1.32 1 2 C0.67 2.99 0.34 3.98 0 5 C0.66 5 1.32 5 2 5 C2.33 4.01 2.66 3.02 3 2 C3.495 2.495 3.495 2.495 4 3 C5.68183948 3.23287008 7.3712416 3.41264166 9.0625 3.5625 C10.44115234 3.68818359 10.44115234 3.68818359 11.84765625 3.81640625 C12.91306641 3.90728516 12.91306641 3.90728516 14 4 C14 4.33 14 4.66 14 5 C13.31292969 5.04898438 12.62585938 5.09796875 11.91796875 5.1484375 C11.01691406 5.22320312 10.11585938 5.29796875 9.1875 5.375 C8.29417969 5.44460937 7.40085937 5.51421875 6.48046875 5.5859375 C3.75601501 5.86645036 3.75601501 5.86645036 1 8 C0.01 8 -0.98 8 -2 8 C-2 8.66 -2 9.32 -2 10 C-2.99 10.33 -3.98 10.66 -5 11 C-5.33 8.69 -5.66 6.38 -6 4 C-6.63292969 4.16371094 -7.26585937 4.32742187 -7.91796875 4.49609375 C-12.06751093 5.17453601 -16.11641498 5.10555375 -20.3125 5.0625 C-21.14845703 5.05798828 -21.98441406 5.05347656 -22.84570312 5.04882812 C-24.89716649 5.03710548 -26.94859273 5.01917203 -29 5 C-29 4.67 -29 4.34 -29 4 C-28.19256348 3.91435791 -27.38512695 3.82871582 -26.55322266 3.74047852 C-22.91004344 3.35180625 -19.26752768 2.95722956 -15.625 2.5625 C-14.35398437 2.42779297 -13.08296875 2.29308594 -11.7734375 2.15429688 C-10.56171875 2.02216797 -9.35 1.89003906 -8.1015625 1.75390625 C-6.98088379 1.63345947 -5.86020508 1.5130127 -4.70556641 1.38891602 C-2.03858134 1.15070767 -2.03858134 1.15070767 0 0 Z " fill="#DF454C" transform="translate(358,228)"/>
<path d="M0 0 C0.99 0 1.98 0 3 0 C3.47467567 3.98727562 3.10003797 5.81993166 1.125 9.375 C-0.72437097 11.40505664 -1.72244037 11.94961497 -4.453125 12.4453125 C-8.86313295 12.53557582 -11.25548581 12.49634279 -15 10 C-15 9.34 -15 8.68 -15 8 C-15.66 8 -16.32 8 -17 8 C-17.33 5.69 -17.66 3.38 -18 1 C-17.01 1 -16.02 1 -15 1 C-14.525625 1.969375 -14.05125 2.93875 -13.5625 3.9375 C-12.29806053 6.80477437 -12.29806053 6.80477437 -11 8 C-7.58399407 8.41692853 -7.58399407 8.41692853 -4 8 C-1.47677724 5.64499209 -0.60041109 3.36230209 0 0 Z " fill="#D45059" transform="translate(263,303)"/>
<path d="M0 0 C6.91428571 -0.31428571 6.91428571 -0.31428571 10 2 C12.38261345 6.05044287 12.60060187 10.41032603 12 15 C9.75 20.625 9.75 20.625 7 22 C4.6670134 22.04022391 2.33293334 22.04320247 0 22 C-0.33 21.34 -0.66 20.68 -1 20 C0.11375 19.71125 1.2275 19.4225 2.375 19.125 C6.00291092 18.30758671 6.00291092 18.30758671 8 16 C8.71325625 11.70387512 8.77767567 8.11096525 6.25 4.5 C4.0891745 3.05944967 2.55390984 2.36484426 0 2 C0 1.34 0 0.68 0 0 Z " fill="#D14E5A" transform="translate(318,292)"/>
<path d="M0 0 C0.65742188 0.50660156 0.65742188 0.50660156 1.328125 1.0234375 C6.59021799 4.72401509 11.19638073 5.81836126 17.55859375 6.54296875 C18.36425781 6.69378906 19.16992188 6.84460938 20 7 C20.33 7.66 20.66 8.32 21 9 C17.7 9 14.4 9 11 9 C11 9.66 11 10.32 11 11 C13.475 11.99 13.475 11.99 16 13 C16 13.99 16 14.98 16 16 C15.67 15.34 15.34 14.68 15 14 C13.01363702 13.29373761 11.01151741 12.63106429 9 12 C8.34 11.649375 7.68 11.29875 7 10.9375 C4.39155804 9.71479283 1.83998588 9.3872708 -1 9 C-0.67 8.34 -0.34 7.68 0 7 C1.65 7 3.3 7 5 7 C5 6.34 5 5.68 5 5 C3.35 4.67 1.7 4.34 0 4 C0 2.68 0 1.36 0 0 Z " fill="#D83C45" transform="translate(304,224)"/>
<path d="M0 0 C0.99 0 1.98 0 3 0 C3 1.32 3 2.64 3 4 C4.65 4 6.3 4 8 4 C8.546544 11.28725335 8.53979139 16.55679133 4.2890625 22.671875 C3.65097656 23.32929688 3.65097656 23.32929688 3 24 C2.34 24 1.68 24 1 24 C1.875 18.25 1.875 18.25 3 16 C3.42801938 9.79371906 2.44563344 5.70647802 0 0 Z " fill="#D8373F" transform="translate(320,240)"/>
<path d="M0 0 C0.66 0.33 1.32 0.66 2 1 C1.505 1.99 1.01 2.98 0.5 4 C-2.41740222 10.87179576 -0.97030325 17.10393863 1 24 C0.01 24 -0.98 24 -2 24 C-5.09866202 17.37384327 -6.47266289 12.32627475 -6 5 C-5.01 5 -4.02 5 -3 5 C-3 3.68 -3 2.36 -3 1 C-2.01 0.67 -1.02 0.34 0 0 Z " fill="#D93D4C" transform="translate(350,241)"/>
<path d="M0 0 C3.3 0.33 6.6 0.66 10 1 C8.02 1.99 8.02 1.99 6 3 C3.30680946 6.5793371 3.55769343 10.94148002 3.375 15.25 C3.33632812 15.99507813 3.29765625 16.74015625 3.2578125 17.5078125 C3.16394892 19.3381524 3.08090282 21.16904143 3 23 C2.01 23 1.02 23 0 23 C0 15.41 0 7.82 0 0 Z " fill="#878787" transform="translate(160,292)"/>
<path d="M0 0 C1.09570312 0.00902344 2.19140625 0.01804687 3.3203125 0.02734375 C4.16335937 0.03894531 5.00640625 0.05054688 5.875 0.0625 C5.875 0.3925 5.875 0.7225 5.875 1.0625 C5.12734375 1.20945312 4.3796875 1.35640625 3.609375 1.5078125 C-2.58470157 2.87432831 -2.58470157 2.87432831 -7.625 6.5 C-9.75055523 11.54819368 -10.98288021 16.7153028 -12.125 22.0625 C-12.455 22.0625 -12.785 22.0625 -13.125 22.0625 C-13.15209444 19.97923869 -13.17143873 17.89587559 -13.1875 15.8125 C-13.19910156 14.65234375 -13.21070313 13.4921875 -13.22265625 12.296875 C-13.14282092 9.65272872 -12.91143778 7.56423909 -12.125 5.0625 C-11.465 5.0625 -10.805 5.0625 -10.125 5.0625 C-9.83625 4.423125 -9.5475 3.78375 -9.25 3.125 C-7.1015715 -0.81378558 -4.11379485 -0.04376378 0 0 Z " fill="#818181" transform="translate(144.125,283.9375)"/>
<path d="M0 0 C2.475 0.495 2.475 0.495 5 1 C2.12233824 3.35142269 -0.49538774 4.72235914 -4 5.9375 C-5.44246094 6.43830078 -5.44246094 6.43830078 -6.9140625 6.94921875 C-7.93242187 7.29597656 -8.95078125 7.64273438 -10 8 C-11.05960937 8.37769531 -12.11921875 8.75539062 -13.2109375 9.14453125 C-14.25507813 9.50933594 -15.29921875 9.87414062 -16.375 10.25 C-17.33148438 10.58515625 -18.28796875 10.9203125 -19.2734375 11.265625 C-21.98333578 11.99551164 -24.20935357 12.14206927 -27 12 C-27.33 11.34 -27.66 10.68 -28 10 C-26.02 10 -24.04 10 -22 10 C-22.33 8.68 -22.66 7.36 -23 6 C-21.68 5.67 -20.36 5.34 -19 5 C-19.33 5.66 -19.66 6.32 -20 7 C-16.50765756 7.09978121 -13.40562852 6.77842938 -10 6 C-10 5.34 -10 4.68 -10 4 C-5.05 2.515 -5.05 2.515 0 1 C0 0.67 0 0.34 0 0 Z " fill="#D84850" transform="translate(367,211)"/>
<path d="M0 0 C0.33 0 0.66 0 1 0 C1.61806341 5.04751785 1.66397665 8.88947134 -1.5 13.0625 C-3.90084302 15.49739753 -5.63635719 16.50945487 -9.0625 16.75 C-12.50882167 16.45894788 -13.149297 15.87558583 -16 13.5 C-16.66 12.675 -17.32 11.85 -18 11 C-17.34 11 -16.68 11 -16 11 C-15.67 10.01 -15.34 9.02 -15 8 C-14.443125 8.99 -14.443125 8.99 -13.875 10 C-12.09105222 12.35303045 -12.09105222 12.35303045 -8.8125 12.25 C-7.4203125 12.12625 -7.4203125 12.12625 -6 12 C-5.67 11.34 -5.34 10.68 -5 10 C-4.34 10 -3.68 10 -3 10 C-3 8.35 -3 6.7 -3 5 C-2.34 5.33 -1.68 5.66 -1 6 C-0.67 4.02 -0.34 2.04 0 0 Z " fill="#DE6673" transform="translate(307,299)"/>
<path d="M0 0 C-1.23041041 3.69123123 -2.54331912 4.41608369 -5.6875 6.625 C-6.53699219 7.23601562 -7.38648438 7.84703125 -8.26171875 8.4765625 C-11.23112285 10.12858475 -13.64244426 10.63622383 -17 11 C-17.33 10.01 -17.66 9.02 -18 8 C-13.375 5 -13.375 5 -10 5 C-9.67 4.01 -9.34 3.02 -9 2 C-5.5647952 -0.29013653 -4.014669 -0.17842973 0 0 Z " fill="#DB4A4F" transform="translate(245,192)"/>
<path d="M0 0 C0.66 0 1.32 0 2 0 C3.18695553 3.56086658 3.35095418 6.97331024 3.5625 10.6875 C3.62727539 11.7403418 3.62727539 11.7403418 3.69335938 12.81445312 C3.7991736 14.54275206 3.90006581 16.2713511 4 18 C3.34 18 2.68 18 2 18 C2 21.3 2 24.6 2 28 C1.34 28 0.68 28 0 28 C0 18.76 0 9.52 0 0 Z " fill="#CE2F37" transform="translate(333,294)"/>
<path d="M0 0 C0.66 0 1.32 0 2 0 C2 3.3 2 6.6 2 10 C2.66 10 3.32 10 4 10 C3.34 16.93 2.68 23.86 2 31 C1.34 31 0.68 31 0 31 C0 20.77 0 10.54 0 0 Z " fill="#B94B50" transform="translate(269,284)"/>
<path d="M0 0 C1.21236328 0.10828125 1.21236328 0.10828125 2.44921875 0.21875 C3.51785156 0.3115625 4.58648437 0.404375 5.6875 0.5 C7.27111328 0.63921875 7.27111328 0.63921875 8.88671875 0.78125 C11.60636025 0.9723415 14.27539856 1.04043935 17 1 C16.67 1.66 16.34 2.32 16 3 C15.01 3.33 14.02 3.66 13 4 C13.66 7.63 14.32 11.26 15 15 C14.34 15 13.68 15 13 15 C10 9.25 10 9.25 10 7 C9.46375 6.7525 8.9275 6.505 8.375 6.25 C5.42838581 4.69915043 2.72082434 2.91694442 0 1 C0 0.67 0 0.34 0 0 Z " fill="#E0444C" transform="translate(375,233)"/>
<path d="M0 0 C0.66 0 1.32 0 2 0 C2.27263672 0.83144531 2.27263672 0.83144531 2.55078125 1.6796875 C2.80214844 2.40414063 3.05351562 3.12859375 3.3125 3.875 C3.67794922 4.95394531 3.67794922 4.95394531 4.05078125 6.0546875 C4.96335547 8.33994905 4.96335547 8.33994905 8 10 C10.0492094 10.45139459 10.0492094 10.45139459 12.1875 10.625 C13.445625 10.74875 14.70375 10.8725 16 11 C16 11.66 16 12.32 16 13 C12.97562661 14.5121867 10.33758466 14.17263369 7 14 C3.54797678 12.84932559 1.69677689 11.22387609 0 8 C-0.24493747 5.27963064 -0.13708782 2.74175634 0 0 Z " fill="#7F7F7F" transform="translate(132,301)"/>
<path d="M0 0 C0.99 0.33 1.98 0.66 3 1 C3 7.93 3 14.86 3 22 C2.01 22.33 1.02 22.66 0 23 C0 15.41 0 7.82 0 0 Z " fill="#ADADAD" transform="translate(188,292)"/>
<path d="M0 0 C0.33 0 0.66 0 1 0 C1.01981934 0.70084717 1.03963867 1.40169434 1.06005859 2.1237793 C1.15556166 5.31205162 1.26513871 8.49969147 1.375 11.6875 C1.4059375 12.79029297 1.436875 13.89308594 1.46875 15.02929688 C1.50742187 16.09599609 1.54609375 17.16269531 1.5859375 18.26171875 C1.6173584 19.24100342 1.6487793 20.22028809 1.68115234 21.22924805 C2.01515692 24.13171201 2.87865001 26.3191585 4 29 C4 29.99 4 30.98 4 32 C4.61875 32.04125 5.2375 32.0825 5.875 32.125 C6.926875 32.558125 6.926875 32.558125 8 33 C9.125 36 9.125 36 10 39 C10.66 39.33 11.32 39.66 12 40 C11.01 40.495 11.01 40.495 10 41 C4.37320655 36.17703419 0.52080958 30.21523328 -0.40161133 22.74951172 C-0.48974477 19.27829546 -0.43822034 15.84488143 -0.3125 12.375 C-0.28994141 11.18003906 -0.26738281 9.98507813 -0.24414062 8.75390625 C-0.1857543 5.83459011 -0.10391701 2.91798971 0 0 Z " fill="#DA5257" transform="translate(276,192)"/>
<path d="M0 0 C0.66 0 1.32 0 2 0 C2.96088383 2.88265149 3.11670941 4.67662271 3.09765625 7.66796875 C3.09282227 9.00698242 3.09282227 9.00698242 3.08789062 10.37304688 C3.07951172 11.30181641 3.07113281 12.23058594 3.0625 13.1875 C3.05798828 14.12787109 3.05347656 15.06824219 3.04882812 16.03710938 C3.03704626 18.35813712 3.02059558 20.67903644 3 23 C2.01 23 1.02 23 0 23 C0 15.41 0 7.82 0 0 Z " fill="#818181" transform="translate(195,292)"/>
<path d="M0 0 C0.66 0.66 1.32 1.32 2 2 C1.01 2.66 0.02 3.32 -1 4 C-1.57748803 5.96361864 -1.57748803 5.96361864 -1.6875 8.125 C-1.8421875 10.043125 -1.8421875 10.043125 -2 12 C-3.65 12.33 -5.3 12.66 -7 13 C-7 13.66 -7 14.32 -7 15 C-8.32 15 -9.64 15 -11 15 C-10.67 16.65 -10.34 18.3 -10 20 C-12.72426311 17.64722731 -13.8141763 15.37503669 -15 12 C-14.34 11.34 -13.68 10.68 -13 10 C-13 10.66 -13 11.32 -13 12 C-11.35 12 -9.7 12 -8 12 C-8 11.34 -8 10.68 -8 10 C-7.01 9.67 -6.02 9.34 -5 9 C-4.9175 8.071875 -4.835 7.14375 -4.75 6.1875 C-4 3 -4 3 -1.9375 1.125 C-1.298125 0.75375 -0.65875 0.3825 0 0 Z " fill="#ED6D70" transform="translate(180,203)"/>
<path d="M0 0 C7.21804511 -0.48120301 7.21804511 -0.48120301 10.4375 1.5 C12.63640725 5.01825161 12.72498419 7.87476285 13 12 C10.36 12 7.72 12 5 12 C5.33 11.01 5.66 10.02 6 9 C7.32 9 8.64 9 10 9 C9.2575 7.824375 9.2575 7.824375 8.5 6.625 C7 4 7 4 7 2 C4.69 2 2.38 2 0 2 C0 1.34 0 0.68 0 0 Z " fill="#777777" transform="translate(220,292)"/>
<path d="M0 0 C0.66 0.33 1.32 0.66 2 1 C1.67 2.65 1.34 4.3 1 6 C-0.65 6 -2.3 6 -4 6 C-3.34 7.32 -2.68 8.64 -2 10 C-3.8125 11.5625 -3.8125 11.5625 -6 13 C-6.99 12.67 -7.98 12.34 -9 12 C-9.33 12.66 -9.66 13.32 -10 14 C-10.33 13.01 -10.66 12.02 -11 11 C-10.67 10.34 -10.34 9.68 -10 9 C-9.34 9 -8.68 9 -8 9 C-7.731875 8.4225 -7.46375 7.845 -7.1875 7.25 C-5.23056191 3.5421173 -4.07061787 1.35687262 0 0 Z " fill="#DB303A" transform="translate(251,180)"/>
<path d="M0 0 C0.66 0 1.32 0 2 0 C2 10.23 2 20.46 2 31 C1.34 31 0.68 31 0 31 C0 20.77 0 10.54 0 0 Z " fill="#878787" transform="translate(181,284)"/>
<path d="M0 0 C-0.75 2.9375 -0.75 2.9375 -2 6 C-4.49674352 7.12756159 -6.23473727 7 -9 7 C-9.1546875 7.9590625 -9.1546875 7.9590625 -9.3125 8.9375 C-9.539375 9.618125 -9.76625 10.29875 -10 11 C-10.99 11.33 -11.98 11.66 -13 12 C-13.33 12.99 -13.66 13.98 -14 15 C-17.5625 16.1875 -17.5625 16.1875 -21 17 C-19.71034824 15.62437146 -18.37310707 14.29233607 -17 13 C-16.34 13 -15.68 13 -15 13 C-14.7525 12.4225 -14.505 11.845 -14.25 11.25 C-12.81700012 8.67060021 -11.21575324 6.93878408 -9 5 C-8.34 5 -7.68 5 -7 5 C-7 4.01 -7 3.02 -7 2 C-2.25 0 -2.25 0 0 0 Z " fill="#DC4D54" transform="translate(167,188)"/>
<path d="M0 0 C0.33 0.99 0.66 1.98 1 3 C1.99 3 2.98 3 4 3 C4.33 4.32 4.66 5.64 5 7 C5.99 7 6.98 7 8 7 C8.66 7 9.32 7 10 7 C11 10 11 10 10 13 C10.66 13 11.32 13 12 13 C12.33 14.32 12.66 15.64 13 17 C5.2052421 13.53566315 2.37729076 8.53063981 -1 1 C-0.67 0.67 -0.34 0.34 0 0 Z " fill="#E04E57" transform="translate(128,236)"/>
<path d="M0 0 C0 0.99 0 1.98 0 3 C-1.65 3.33 -3.3 3.66 -5 4 C-5.33 5.32 -5.66 6.64 -6 8 C-2.7 8 0.6 8 4 8 C4 8.33 4 8.66 4 9 C2.27192682 9.33895656 0.54248026 9.67091525 -1.1875 10 C-2.63189453 10.2784375 -2.63189453 10.2784375 -4.10546875 10.5625 C-6.7934206 10.96877612 -9.28771019 11.07933572 -12 11 C-11.84765625 8.70703125 -11.84765625 8.70703125 -11 6 C-8.49609375 4.19921875 -8.49609375 4.19921875 -5.4375 2.6875 C-4.42558594 2.17574219 -3.41367187 1.66398438 -2.37109375 1.13671875 C-1.58863281 0.76160156 -0.80617188 0.38648438 0 0 Z " fill="#D74650" transform="translate(319,191)"/>
<path d="M0 0 C1.00256836 -0.01933594 1.00256836 -0.01933594 2.02539062 -0.0390625 C6.62677368 -0.04812926 10.54253581 0.64790861 14.875 2.1875 C15.535 2.8475 16.195 3.5075 16.875 4.1875 C14.235 4.1875 11.595 4.1875 8.875 4.1875 C8.875 3.5275 8.875 2.8675 8.875 2.1875 C0.295 2.1875 -8.285 2.1875 -17.125 2.1875 C-17.125 1.8575 -17.125 1.5275 -17.125 1.1875 C-11.4132482 0.37153546 -5.76757533 0.05335407 0 0 Z " fill="#D64449" transform="translate(376.125,174.8125)"/>
<path d="M0 0 C3.33279041 1.8522879 5.05044708 3.76975593 6.625 7.3125 C5.635 7.3125 4.645 7.3125 3.625 7.3125 C3.625 6.6525 3.625 5.9925 3.625 5.3125 C1.645 4.6525 -0.335 3.9925 -2.375 3.3125 C-2.375 2.3225 -2.375 1.3325 -2.375 0.3125 C-4.60441405 0.62323024 -6.83352212 0.93615625 -9.0625 1.25 C-10.92455078 1.51103516 -10.92455078 1.51103516 -12.82421875 1.77734375 C-15.69974548 2.21072897 -18.53144813 2.70899282 -21.375 3.3125 C-14.80756936 -2.18994188 -7.99816575 -3.66644197 0 0 Z " fill="#D93640" transform="translate(291.375,153.6875)"/>
<path d="M0 0 C0.391875 0.474375 0.78375 0.94875 1.1875 1.4375 C3.40808374 3.35179633 5.13375709 3.61266988 8 4 C8 3.34 8 2.68 8 2 C9.32 2 10.64 2 12 2 C12 2.66 12 3.32 12 4 C4.57142857 8.28571429 4.57142857 8.28571429 1 10 C0.67 9.01 0.34 8.02 0 7 C1.32 7 2.64 7 4 7 C4 6.34 4 5.68 4 5 C1.08365871 4.7497843 1.08365871 4.7497843 -2 5 C-2.99 6.485 -2.99 6.485 -4 8 C-6.125 8.6875 -6.125 8.6875 -8 9 C-8 7 -8 7 -6.625 5.375 C-5 4 -5 4 -3 4 C-3 3.34 -3 2.68 -3 2 C-2.01 1.34 -1.02 0.68 0 0 Z " fill="#DE444B" transform="translate(269,157)"/>
<path d="M0 0 C2.10588701 0.78707902 4.20965616 1.57982626 6.3125 2.375 C8.07013672 3.03628906 8.07013672 3.03628906 9.86328125 3.7109375 C13 5 13 5 16 7 C16 7.66 16 8.32 16 9 C15.34 9 14.68 9 14 9 C13.67 9.66 13.34 10.32 13 11 C12.61199219 10.53980469 12.22398437 10.07960938 11.82421875 9.60546875 C9.58194298 7.63207401 7.68182469 7.0950431 4.8125 6.3125 C3.91144531 6.06113281 3.01039063 5.80976563 2.08203125 5.55078125 C1.39496094 5.36902344 0.70789063 5.18726563 0 5 C0 3.33333333 0 1.66666667 0 0 Z " fill="#D96070" transform="translate(249,294)"/>
<path d="M0 0 C2.64 0.33 5.28 0.66 8 1 C8 1.99 8 2.98 8 4 C7.01 4 6.02 4 5 4 C5 4.66 5 5.32 5 6 C3.9171875 6.4021875 3.9171875 6.4021875 2.8125 6.8125 C0.02409874 7.98982498 -2.44095724 9.39145884 -5 11 C-5 10.01 -5 9.02 -5 8 C-4.34 7.67 -3.68 7.34 -3 7 C-2.30062468 5.68352881 -1.63270867 4.34977849 -1 3 C-0.67 2.67 -0.34 2.34 0 2 C0 1.34 0 0.68 0 0 Z " fill="#DF222A" transform="translate(180,231)"/>
<path d="M0 0 C3.125 0.375 3.125 0.375 6 1 C3.0633353 4.1391933 1.20142026 5.90494731 -3.26171875 6.09765625 C-4.06222656 6.08605469 -4.86273438 6.07445312 -5.6875 6.0625 C-6.89986328 6.04896484 -6.89986328 6.04896484 -8.13671875 6.03515625 C-9.05904297 6.01775391 -9.05904297 6.01775391 -10 6 C-10 5.34 -10 4.68 -10 4 C-10.66 3.67 -11.32 3.34 -12 3 C-10.95199219 2.92652344 -10.95199219 2.92652344 -9.8828125 2.8515625 C-8.97273438 2.77679688 -8.06265625 2.70203125 -7.125 2.625 C-6.22007812 2.55539062 -5.31515625 2.48578125 -4.3828125 2.4140625 C-1.82058097 2.20431868 -1.82058097 2.20431868 0 0 Z " fill="#D1303A" transform="translate(311,262)"/>
<path d="M0 0 C1.32 0 2.64 0 4 0 C4 0.66 4 1.32 4 2 C3.01 2.33 2.02 2.66 1 3 C1.33 3.66 1.66 4.32 2 5 C4.35599235 5.46751788 4.35599235 5.46751788 7.0625 5.625 C7.98160156 5.69976562 8.90070313 5.77453125 9.84765625 5.8515625 C10.55792969 5.90054688 11.26820313 5.94953125 12 6 C9.72548104 8.60535808 9.271191 8.96986767 5.625 9.375 C0.85781754 8.88184319 -1.65783288 7.34216712 -5 4 C-3.35 3.34 -1.7 2.68 0 2 C0 1.34 0 0.68 0 0 Z " fill="#EE1921" transform="translate(180,220)"/>
<path d="M0 0 C0.99 0.33 1.98 0.66 3 1 C3.6875 3.0625 3.6875 3.0625 4 5 C6.31 5 8.62 5 11 5 C11.33 6.32 11.66 7.64 12 9 C7.95853394 9.31697773 5.62235307 9.35752198 2.0625 7.3125 C0 5 0 5 -0.3125 2.25 C-0.209375 1.5075 -0.10625 0.765 0 0 Z " fill="#E1797B" transform="translate(383,314)"/>
<path d="M0 0 C0.33 0 0.66 0 1 0 C1.19622241 4.21878192 0.80230168 7.17010894 -1 11 C-1.66 11 -2.32 11 -3 11 C-3.33 12.32 -3.66 13.64 -4 15 C-4.66 15 -5.32 15 -6 15 C-5.57429438 8.82726847 -4.57782148 4.57782148 0 0 Z " fill="#DF3741" transform="translate(132,211)"/>
<path d="M0 0 C3.3 0 6.6 0 10 0 C10 0.99 10 1.98 10 3 C3.375 6.875 3.375 6.875 0 8 C-0.33 7.01 -0.66 6.02 -1 5 C0.32 5 1.64 5 3 5 C3 4.34 3 3.68 3 3 C1.68 2.67 0.36 2.34 -1 2 C-0.67 1.34 -0.34 0.68 0 0 Z " fill="#DD4C54" transform="translate(373,204)"/>
<path d="M0 0 C0.99 0 1.98 0 3 0 C3 7.26 3 14.52 3 22 C1.68 20.68 0.36 19.36 -1 18 C-1 17.34 -1 16.68 -1 16 C-0.34 16 0.32 16 1 16 C0.67 10.72 0.34 5.44 0 0 Z " fill="#C43038" transform="translate(398,294)"/>
<path d="M0 0 C0.99 0.33 1.98 0.66 3 1 C3 5.95 3 10.9 3 16 C2.01 16.33 1.02 16.66 0 17 C0 11.39 0 5.78 0 0 Z " fill="#8D8D8D" transform="translate(175,298)"/>
<path d="M0 0 C1.134375 0.020625 2.26875 0.04125 3.4375 0.0625 C4.125 1.875 4.125 1.875 4.4375 4.0625 C3.3125 5.875 3.3125 5.875 1.4375 7.0625 C-1.25 6.75 -1.25 6.75 -3.5625 6.0625 C-3.94468767 4.40635343 -4.27645102 2.73792976 -4.5625 1.0625 C-3.5625 0.0625 -3.5625 0.0625 0 0 Z " fill="#E32227" transform="translate(190.5625,195.9375)"/>
<path d="M0 0 C1.32 0.33 2.64 0.66 4 1 C2.8984375 2.9765625 2.8984375 2.9765625 1 5 C-1.9609375 5.4609375 -1.9609375 5.4609375 -5.375 5.375 C-6.49648437 5.36210937 -7.61796875 5.34921875 -8.7734375 5.3359375 C-11.8927744 5.01116392 -14.17549926 4.32233181 -17 3 C-17 2.67 -17 2.34 -17 2 C-13.7 1.67 -10.4 1.34 -7 1 C-7.33 1.99 -7.66 2.98 -8 4 C-6.02 4 -4.04 4 -2 4 C-2 3.34 -2 2.68 -2 2 C-1.34 2 -0.68 2 0 2 C0 1.34 0 0.68 0 0 Z " fill="#D84A52" transform="translate(159,251)"/>
<path d="M0 0 C0.33 0.66 0.66 1.32 1 2 C1.66 2 2.32 2 3 2 C3 2.66 3 3.32 3 4 C1.35 4.33 -0.3 4.66 -2 5 C-2 5.99 -2 6.98 -2 8 C-4.3125 8.25 -4.3125 8.25 -7 8 C-7.99 6.68 -8.98 5.36 -10 4 C-6.7 2.68 -3.4 1.36 0 0 Z " fill="#E23C43" transform="translate(370,223)"/>
<path d="M0 0 C0.51949219 0.34933594 1.03898437 0.69867188 1.57421875 1.05859375 C6.87724314 4.54055504 6.87724314 4.54055504 13 6 C13 6.33 13 6.66 13 7 C10.36 7 7.72 7 5 7 C5 6.34 5 5.68 5 5 C3.35 4.67 1.7 4.34 0 4 C0 2.68 0 1.36 0 0 Z M0 7 C3.62528568 6.79859524 5.86501708 7.14223235 9 9 C9 9.66 9 10.32 9 11 C5.7 10.34 2.4 9.68 -1 9 C-0.67 8.34 -0.34 7.68 0 7 Z " fill="#DD5159" transform="translate(304,224)"/>
<path d="M0 0 C0.928125 0.2784375 0.928125 0.2784375 1.875 0.5625 C4.04160178 1.23686176 4.04160178 1.23686176 6 0 C8.6723621 -0.13415472 11.32250488 -0.04318541 14 0 C13.67 0.99 13.34 1.98 13 3 C11.906875 3.0825 10.81375 3.165 9.6875 3.25 C5.96723336 3.63689209 5.96723336 3.63689209 4.0625 6.0625 C3.711875 6.701875 3.36125 7.34125 3 8 C2.67 6.02 2.34 4.04 2 2 C1.34 2 0.68 2 0 2 C0 1.34 0 0.68 0 0 Z " fill="#D76A6F" transform="translate(333,292)"/>
<path d="M0 0 C1.485 0.99 1.485 0.99 3 2 C3 2.66 3 3.32 3 4 C3.66 4 4.32 4 5 4 C6.52003714 9.89014391 6.67407948 16.14072182 5 22 C4.34 22 3.68 22 3 22 C2.67 22.66 2.34 23.32 2 24 C2 22.68 2 21.36 2 20 C2.66 20 3.32 20 4 20 C3.91239411 17.93673023 3.80420727 15.8743284 3.6875 13.8125 C3.62949219 12.66394531 3.57148438 11.51539063 3.51171875 10.33203125 C2.97449351 6.83391577 1.93102411 4.9146557 0 2 C0 1.34 0 0.68 0 0 Z " fill="#D95259" transform="translate(315,239)"/>
<path d="M0 0 C0.33 0.99 0.66 1.98 1 3 C1.66 3.33 2.32 3.66 3 4 C2.195625 4.28875 1.39125 4.5775 0.5625 4.875 C-2.1326468 5.73262568 -2.1326468 5.73262568 -3 8 C-3.99 8 -4.98 8 -6 8 C-5.67 9.32 -5.34 10.64 -5 12 C-8.28696233 12.79953138 -9.71023192 13.09658936 -13 12 C-10.11912454 9.59927045 -7.43595166 7.52708963 -4 6 C-4 5.34 -4 4.68 -4 4 C-2.70766393 2.62689293 -1.37562854 1.28965176 0 0 Z " fill="#DE4148" transform="translate(385,211)"/>
<path d="M0 0 C0.8971875 0.680625 0.8971875 0.680625 1.8125 1.375 C3.50590652 2.63295913 5.24477086 3.82984724 7 5 C5.3603125 5.2165625 5.3603125 5.2165625 3.6875 5.4375 C0.06877013 5.88288104 0.06877013 5.88288104 -3 7 C-2.731875 7.721875 -2.46375 8.44375 -2.1875 9.1875 C-2 12 -2 12 -4.4375 14.8125 C-5.283125 15.534375 -6.12875 16.25625 -7 17 C-7.33 15.68 -7.66 14.36 -8 13 C-6.68 13 -5.36 13 -4 13 C-4.268125 12.113125 -4.53625 11.22625 -4.8125 10.3125 C-5 7 -5 7 -2.5625 4.25 C-1.716875 3.5075 -0.87125 2.765 0 2 C0 1.34 0 0.68 0 0 Z " fill="#F69396" transform="translate(194,197)"/>
<path d="M0 0 C0.99 0 1.98 0 3 0 C3.66 3.96 4.32 7.92 5 12 C0.81800367 9.90900184 0.00340633 9.00681267 -2 5 C-2 4.34 -2 3.68 -2 3 C-1.34 3 -0.68 3 0 3 C0 2.01 0 1.02 0 0 Z " fill="#E23F4B" transform="translate(355,254)"/>
<path d="M0 0 C0 0.66 0 1.32 0 2 C-1.32 2.33 -2.64 2.66 -4 3 C-3.67 3.99 -3.34 4.98 -3 6 C-3.804375 6.680625 -4.60875 7.36125 -5.4375 8.0625 C-8.42288711 11.48477302 -8.73781251 13.5428126 -9 18 C-9.66 18 -10.32 18 -11 18 C-10.83525352 11.39516398 -9.6434427 6.84474802 -5 2 C-2 0 -2 0 0 0 Z " fill="#DC555C" transform="translate(363,238)"/>
<path d="M0 0 C0.33 0.66 0.66 1.32 1 2 C3.01669827 3.13350534 3.01669827 3.13350534 5 4 C5 4.99 5 5.98 5 7 C4.34 7 3.68 7 3 7 C2.731875 7.61875 2.46375 8.2375 2.1875 8.875 C1 11 1 11 -2 13 C-2.99 11.68 -3.98 10.36 -5 9 C-2.50907189 7.75453595 -1.58919267 8.2232422 1 9 C0.835 8.360625 0.67 7.72125 0.5 7.0625 C0 5 0 5 0 4 C-0.66 3.67 -1.32 3.34 -2 3 C-1.34 2.01 -0.68 1.02 0 0 Z " fill="#E04E55" transform="translate(251,177)"/>
<path d="M0 0 C3.1875 -0.4375 3.1875 -0.4375 7 0 C9.23549622 2.01357045 10.85443741 4.21365766 12 7 C11.67 7.99 11.34 8.98 11 10 C11 9.34 11 8.68 11 8 C10.01 8.33 9.02 8.66 8 9 C7.4225 8.030625 6.845 7.06125 6.25 6.0625 C4.35207138 2.90530708 4.35207138 2.90530708 1.75 2.125 C0.88375 2.063125 0.88375 2.063125 0 2 C0 1.34 0 0.68 0 0 Z " fill="#898989" transform="translate(145,285)"/>
<path d="M0 0 C0.66 0 1.32 0 2 0 C2 6.6 2 13.2 2 20 C1.34 20 0.68 20 0 20 C0 13.4 0 6.8 0 0 Z " fill="#CD424E" transform="translate(356,295)"/>
<path d="M0 0 C2.94473311 5.88946621 3.18313852 9.89672552 3.1875 16.5 C3.19974609 17.47582031 3.21199219 18.45164063 3.22460938 19.45703125 C3.22654297 20.38902344 3.22847656 21.32101563 3.23046875 22.28125 C3.23457764 23.13783203 3.23868652 23.99441406 3.24291992 24.87695312 C3 27 3 27 1 29 C1.00523682 28.43490723 1.01047363 27.86981445 1.01586914 27.28759766 C1.03662422 24.7334097 1.0496554 22.17923947 1.0625 19.625 C1.07087891 18.73554688 1.07925781 17.84609375 1.08789062 16.9296875 C1.09111328 16.07890625 1.09433594 15.228125 1.09765625 14.3515625 C1.10289307 13.56604004 1.10812988 12.78051758 1.11352539 11.97119141 C1.12573953 9.92227332 1.12573953 9.92227332 0 8 C-0.13415472 5.3276379 -0.04318541 2.67749512 0 0 Z " fill="#D5525A" transform="translate(401,193)"/>
<path d="M0 0 C2 1.5 2 1.5 3 3 C2.67 3.66 2.34 4.32 2 5 C1.67 4.67 1.34 4.34 1 4 C0.34 4.66 -0.32 5.32 -1 6 C-1 5.01 -1 4.02 -1 3 C-3.64 3.33 -6.28 3.66 -9 4 C-9 3.34 -9 2.68 -9 2 C-9.66 1.67 -10.32 1.34 -11 1 C-7.26274081 -0.24575306 -3.91147543 -0.48893443 0 0 Z " fill="#DC777E" transform="translate(282,292)"/>
<path d="M0 0 C3.16115776 1.36983503 3.9927092 1.9890638 6 5 C6.125 7.6875 6.125 7.6875 6 10 C5.01 10 4.02 10 3 10 C2.566875 9.05125 2.13375 8.1025 1.6875 7.125 C0.20697799 3.79958063 0.20697799 3.79958063 -3 2 C-2.01 2 -1.02 2 0 2 C0 1.34 0 0.68 0 0 Z " fill="#DD767D" transform="translate(259,284)"/>
<path d="M0 0 C2.97 0.495 2.97 0.495 6 1 C6 1.66 6 2.32 6 3 C8.97 3.495 8.97 3.495 12 4 C12 3.34 12 2.68 12 2 C13.65 2 15.3 2 17 2 C17.33 2.66 17.66 3.32 18 4 C14.29678381 5.85160809 10.04127136 5.46962786 6 5 C3.52013775 3.9302555 2.06961818 2.7973 0 1 C0 0.67 0 0.34 0 0 Z " fill="#DC5760" transform="translate(210,200)"/>
<path d="M0 0 C0.33 1.32 0.66 2.64 1 4 C2.65 4.33 4.3 4.66 6 5 C5.01 6.98 4.02 8.96 3 11 C2.34 9.68 1.68 8.36 1 7 C-2.11785113 7.64644661 -2.11785113 7.64644661 -3 10 C-2.25 3.375 -2.25 3.375 0 0 Z " fill="#E05256" transform="translate(287,233)"/>
<path d="M0 0 C5.28 0 10.56 0 16 0 C16 0.99 16 1.98 16 3 C10.72 3 5.44 3 0 3 C0 2.01 0 1.02 0 0 Z " fill="#DD3C47" transform="translate(328,241)"/>
<path d="M0 0 C2.31 0.33 4.62 0.66 7 1 C7 1.99 7 2.98 7 4 C5.02 4.33 3.04 4.66 1 5 C1 5.66 1 6.32 1 7 C0.01 7 -0.98 7 -2 7 C-2 5.35 -2 3.7 -2 2 C-1.34 2 -0.68 2 0 2 C0 1.34 0 0.68 0 0 Z " fill="#E61C24" transform="translate(201,192)"/>
<path d="M0 0 C1.99980351 0.25929957 3.97840348 0.67064628 5.94921875 1.09765625 C5.94921875 1.42765625 5.94921875 1.75765625 5.94921875 2.09765625 C3.63921875 2.75765625 1.32921875 3.41765625 -1.05078125 4.09765625 C-1.71078125 7.06765625 -2.37078125 10.03765625 -3.05078125 13.09765625 C-3.38078125 13.09765625 -3.71078125 13.09765625 -4.05078125 13.09765625 C-4.19515625 12.33453125 -4.33953125 11.57140625 -4.48828125 10.78515625 C-5.01404065 8.01592717 -5.01404065 8.01592717 -6.05078125 5.09765625 C-3.47253486 0.1653588 -3.47253486 0.1653588 0 0 Z " fill="#E1797C" transform="translate(388.05078125,292.90234375)"/>
<path d="M0 0 C1.09570312 0.00902344 2.19140625 0.01804687 3.3203125 0.02734375 C4.16335937 0.03894531 5.00640625 0.05054688 5.875 0.0625 C5.875 0.3925 5.875 0.7225 5.875 1.0625 C4.14643541 1.5438341 2.41711929 2.02246971 0.6875 2.5 C-0.75689453 2.90025391 -0.75689453 2.90025391 -2.23046875 3.30859375 C-4.85163697 3.99130018 -7.463935 4.56142195 -10.125 5.0625 C-7.72498228 -0.25182494 -5.65089468 -0.0601159 0 0 Z " fill="#A0A0A0" transform="translate(144.125,283.9375)"/>
<path d="M0 0 C1.65 0 3.3 0 5 0 C5 0.66 5 1.32 5 2 C5.99 2 6.98 2 8 2 C8 2.66 8 3.32 8 4 C6.1875 5.0625 6.1875 5.0625 4 6 C1 5 1 5 -1 4 C-0.67 2.68 -0.34 1.36 0 0 Z " fill="#E43034" transform="translate(295,230)"/>
<path d="M0 0 C2.64 0 5.28 0 8 0 C8 1.32 8 2.64 8 4 C6.68 4 5.36 4 4 4 C4.33 4.99 4.66 5.98 5 7 C4.01 7 3.02 7 2 7 C1.67 6.01 1.34 5.02 1 4 C0.34 3.67 -0.32 3.34 -1 3 C-0.67 2.01 -0.34 1.02 0 0 Z " fill="#DA2026" transform="translate(368,205)"/>
<path d="M0 0 C0.8353125 0.9590625 0.8353125 0.9590625 1.6875 1.9375 C4.22066561 4.19680987 5.68341424 4.63149047 9 5 C9 5.33 9 5.66 9 6 C6.36 6.33 3.72 6.66 1 7 C0.67 9.97 0.34 12.94 0 16 C-0.99 15.67 -1.98 15.34 -3 15 C-2.34 15 -1.68 15 -1 15 C-1.01160156 14.33613281 -1.02320313 13.67226563 -1.03515625 12.98828125 C-1.12478032 4.21792619 -1.12478032 4.21792619 0 0 Z " fill="#E1636B" transform="translate(336,307)"/>
<path d="M0 0 C0.99 0 1.98 0 3 0 C3 1.32 3 2.64 3 4 C4.32 4 5.64 4 7 4 C7 7.3 7 10.6 7 14 C3.93901805 10.93901805 3.17354587 9.30177237 1.8125 5.3125 C1.46832031 4.31863281 1.12414062 3.32476562 0.76953125 2.30078125 C0.51558594 1.54152344 0.26164062 0.78226563 0 0 Z " fill="#E23C46" transform="translate(320,240)"/>
<path d="M0 0 C0.804375 1.2065625 0.804375 1.2065625 1.625 2.4375 C4.43105369 5.46508424 5.96825194 5.72510809 10 6 C10 6.33 10 6.66 10 7 C3.9453125 7.1953125 3.9453125 7.1953125 2 7 C1.34 6.34 0.68 5.68 0 5 C-0.33 6.65 -0.66 8.3 -1 10 C-1.33 10 -1.66 10 -2 10 C-2 7.03 -2 4.06 -2 1 C-1.34 0.67 -0.68 0.34 0 0 Z " fill="#D95F65" transform="translate(314,308)"/>
<path d="M0 0 C0.99 0.33 1.98 0.66 3 1 C5.14255793 0.61067144 5.14255793 0.61067144 7 0 C7 0.66 7 1.32 7 2 C8.32 2.33 9.64 2.66 11 3 C9.02 3 7.04 3 5 3 C4.34 4.98 3.68 6.96 3 9 C1.35173889 6.03312999 0.55728913 3.34373475 0 0 Z " fill="#E2787C" transform="translate(311,292)"/>
<path d="M0 0 C4.38894929 3.26720791 8.75259665 6.54898478 13 10 C10.36 10 7.72 10 5 10 C5.33 9.01 5.66 8.02 6 7 C5.01 7.33 4.02 7.66 3 8 C1.92474806 5.34771188 0.90543849 2.71631546 0 0 Z " fill="#DC262E" transform="translate(167,221)"/>
<path d="M0 0 C0.721875 0.391875 1.44375 0.78375 2.1875 1.1875 C-2.3125 5.1875 -2.3125 5.1875 -6.8125 5.1875 C-7.1425 4.1975 -7.4725 3.2075 -7.8125 2.1875 C-3.50480769 -1.0125 -3.50480769 -1.0125 0 0 Z " fill="#DE5A5E" transform="translate(234.8125,197.8125)"/>
<path d="M0 0 C0.99 0.33 1.98 0.66 3 1 C3.33 1.99 3.66 2.98 4 4 C4.66 4.33 5.32 4.66 6 5 C6.33 5.99 6.66 6.98 7 8 C7.66 8.33 8.32 8.66 9 9 C9 9.66 9 10.32 9 11 C9.66 11.33 10.32 11.66 11 12 C6.71929301 11.52436589 4.6995915 9.19688467 2 6 C0.6875 2.6875 0.6875 2.6875 0 0 Z " fill="#D54E51" transform="translate(290,255)"/>
<path d="M0 0 C1.65 0.33 3.3 0.66 5 1 C5 1.33 5 1.66 5 2 C8.63 2.33 12.26 2.66 16 3 C15.67 3.66 15.34 4.32 15 5 C13.02043559 4.85966889 11.04134859 4.7125877 9.0625 4.5625 C7.96035156 4.48128906 6.85820312 4.40007812 5.72265625 4.31640625 C3 4 3 4 2 3 C1.67 3.66 1.34 4.32 1 5 C0.34 5 -0.32 5 -1 5 C-0.67 3.35 -0.34 1.7 0 0 Z " fill="#D92128" transform="translate(359,228)"/>
<path d="M0 0 C0.66 0 1.32 0 2 0 C2.433125 0.474375 2.86625 0.94875 3.3125 1.4375 C5.44693733 3.41383086 7.16307947 3.61663236 10 4 C10.33 4.99 10.66 5.98 11 7 C12.65 7.33 14.3 7.66 16 8 C12.86650268 9.04449911 12.01031744 8.93423645 9 8 C9 7.34 9 6.68 9 6 C8.2575 5.9175 7.515 5.835 6.75 5.75 C3.47402617 4.85655259 2.16408188 3.56483779 0 1 C0 0.67 0 0.34 0 0 Z " fill="#F3787F" transform="translate(171,223)"/>
<path d="M0 0 C0.33 0 0.66 0 1 0 C1.87557031 6.54311329 2.3548854 11.76647981 0 18 C-0.33 18 -0.66 18 -1 18 C-1.09706112 11.88514973 -0.77040851 6.06696699 0 0 Z " fill="#D74349" transform="translate(200,208)"/>
<path d="M0 0 C0.33 0 0.66 0 1 0 C1.4726477 8.19256018 1.4726477 8.19256018 -0.5 11.5625 C-0.995 12.036875 -1.49 12.51125 -2 13 C-2.99 12.67 -3.98 12.34 -5 12 C-5 11.34 -5 10.68 -5 10 C-4.34 10 -3.68 10 -3 10 C-3 8.35 -3 6.7 -3 5 C-2.34 5.33 -1.68 5.66 -1 6 C-0.67 4.02 -0.34 2.04 0 0 Z " fill="#E5999C" transform="translate(307,299)"/>
<path d="M0 0 C0.33 0.99 0.66 1.98 1 3 C1.66 3.33 2.32 3.66 3 4 C-1.39453125 8.00390625 -1.39453125 8.00390625 -3 9 C-3.99 8.67 -4.98 8.34 -6 8 C-5.34 8 -4.68 8 -4 8 C-4.33 7.01 -4.66 6.02 -5 5 C-3.35 4.34 -1.7 3.68 0 3 C0 2.01 0 1.02 0 0 Z " fill="#9D9D9D" transform="translate(152,306)"/>
<path d="M0 0 C0.66 0.33 1.32 0.66 2 1 C0 5 -2 9 -4 13 C-4.15620438 3.62773723 -4.15620438 3.62773723 -3 1 C-2.01 0.67 -1.02 0.34 0 0 Z " fill="#DE3B3E" transform="translate(350,241)"/>
<path d="M0 0 C0.66 0 1.32 0 2 0 C4.1519437 3.22791555 4.20086443 4.28400809 4 8 C3.01 8 2.02 8 1 8 C1.33 7.67 1.66 7.34 2 7 C1.01 6.34 0.02 5.68 -1 5 C-0.67 3.35 -0.34 1.7 0 0 Z " fill="#EB2C34" transform="translate(182,207)"/>
<path d="M0 0 C6.6 1.46666667 6.6 1.46666667 8.5 4 C9 6 9 6 8 8 C7.34 7.67 6.68 7.34 6 7 C6 5.68 6 4.36 6 3 C4.35 3 2.7 3 1 3 C0.67 3.66 0.34 4.32 0 5 C-0.5625 3.0625 -0.5625 3.0625 -1 1 C-0.67 0.67 -0.34 0.34 0 0 Z " fill="#E23039" transform="translate(388,178)"/>
<path d="M0 0 C-0.99 1.485 -0.99 1.485 -2 3 C-5.2578125 3.51171875 -5.2578125 3.51171875 -9.125 3.6875 C-11.04699219 3.78611328 -11.04699219 3.78611328 -13.0078125 3.88671875 C-13.99523437 3.92410156 -14.98265625 3.96148437 -16 4 C-13.03476487 2.02317658 -10.84158175 1.24171007 -7.4375 0.3125 C-6.46683594 0.04050781 -5.49617188 -0.23148438 -4.49609375 -0.51171875 C-2 -1 -2 -1 0 0 Z " fill="#DC474F" transform="translate(358,178)"/>
<path d="M0 0 C0.33 0 0.66 0 1 0 C1 3.96 1 7.92 1 12 C1.66 12 2.32 12 3 12 C3 13.65 3 15.3 3 17 C2.01 17 1.02 17 0 17 C0 11.39 0 5.78 0 0 Z " fill="#E8828C" transform="translate(282,298)"/>
<path d="M0 0 C1.52519276 0.08937803 3.04681929 0.24537146 4.5625 0.4375 C5.38878906 0.53933594 6.21507812 0.64117187 7.06640625 0.74609375 C7.70449219 0.82988281 8.34257812 0.91367187 9 1 C9 1.33 9 1.66 9 2 C6.69 2 4.38 2 2 2 C1.34 3.65 0.68 5.3 0 7 C-0.33 6.34 -0.66 5.68 -1 5 C-1.66 5 -2.32 5 -3 5 C-1.125 1.125 -1.125 1.125 0 0 Z " fill="#9E9E9E" transform="translate(218,293)"/>
<path d="M0 0 C0.99 0.33 1.98 0.66 3 1 C2.67 2.65 2.34 4.3 2 6 C-0.31 6.33 -2.62 6.66 -5 7 C-5.33 6.34 -5.66 5.68 -6 5 C-4.02 5 -2.04 5 0 5 C-0.2784375 4.0409375 -0.2784375 4.0409375 -0.5625 3.0625 C-0.706875 2.381875 -0.85125 1.70125 -1 1 C-0.67 0.67 -0.34 0.34 0 0 Z " fill="#DE3039" transform="translate(345,216)"/>
<path d="M0 0 C0 0.99 0 1.98 0 3 C-0.99 3.495 -0.99 3.495 -2 4 C-2.99 5.485 -2.99 5.485 -4 7 C-7.125 7.1875 -7.125 7.1875 -10 7 C-10 6.34 -10 5.68 -10 5 C-6.7 3.35 -3.4 1.7 0 0 Z " fill="#D94952" transform="translate(144,205)"/>
<path d="M0 0 C2.97 0.495 2.97 0.495 6 1 C5.46274105 4.37705625 4.88935377 7.696686 4 11 C3.01 10.67 2.02 10.34 1 10 C1.33 9.67 1.66 9.34 2 9 C2.26293056 4.96839809 2.29404844 3.44107266 0 0 Z " fill="#E14E55" transform="translate(385,199)"/>
<path d="M0 0 C0.33 0.66 0.66 1.32 1 2 C-3.95 3.485 -3.95 3.485 -9 5 C-9 5.66 -9 6.32 -9 7 C-10.65 7 -12.3 7 -14 7 C-11.50003341 4.0222241 -8.95288929 3.05451517 -5.3125 1.8125 C-4.31863281 1.46832031 -3.32476562 1.12414062 -2.30078125 0.76953125 C-1.54152344 0.51558594 -0.78226562 0.26164063 0 0 Z " fill="#D75359" transform="translate(340,182)"/>
<path d="M0 0 C0.99 0 1.98 0 3 0 C3.25 5.625 3.25 5.625 1 9 C0.01 8.67 -0.98 8.34 -2 8 C-1.67 7.67 -1.34 7.34 -1 7 C-0.63239269 4.67182036 -0.29758419 2.3381615 0 0 Z " fill="#D54F55" transform="translate(263,303)"/>
<path d="M0 0 C0.33 0 0.66 0 1 0 C1.144375 1.051875 1.28875 2.10375 1.4375 3.1875 C1.87526966 6.15460549 2.37804866 9.06794366 3 12 C2.01 11.67 1.02 11.34 0 11 C-1.49297212 8.01405576 -1.11755228 5.29146376 -1 2 C-0.67 1.34 -0.34 0.68 0 0 Z " fill="#D03F45" transform="translate(383,299)"/>
<path d="M0 0 C4.40963578 0.94492195 7.17594676 1.76392015 9.75 5.625 C10.1625 6.40875 10.575 7.1925 11 8 C10.01 8 9.02 8 8 8 C8 7.34 8 6.68 8 6 C6.02 5.34 4.04 4.68 2 4 C2 3.01 2 2.02 2 1 C1.34 0.67 0.68 0.34 0 0 Z " fill="#DF525A" transform="translate(287,153)"/>
<path d="M0 0 C2.33524782 2.25740623 4.18705073 4.2805761 6 7 C6 7.99 6 8.98 6 10 C3.54896452 9.01958581 2.23241214 8.3486182 0.75 6.125 C0 4 0 4 0 0 Z " fill="#CF6A70" transform="translate(284,252)"/>
<path d="M0 0 C4.875 3.625 4.875 3.625 6 7 C6.06802967 8.72795352 6.08495645 10.45835365 6.0625 12.1875 C6.05347656 13.08855469 6.04445313 13.98960937 6.03515625 14.91796875 C6.02355469 15.60503906 6.01195312 16.29210937 6 17 C5.67 17 5.34 17 5 17 C4.96132813 15.73542969 4.96132813 15.73542969 4.921875 14.4453125 C4.83679688 12.80175781 4.83679688 12.80175781 4.75 11.125 C4.70359375 10.03445312 4.6571875 8.94390625 4.609375 7.8203125 C4.31153872 4.8667935 4.31153872 4.8667935 1.953125 3.6171875 C1.30859375 3.41351563 0.6640625 3.20984375 0 3 C0 2.01 0 1.02 0 0 Z " fill="#DF5862" transform="translate(378,241)"/>
<path d="M0 0 C0.66 0 1.32 0 2 0 C3 3 3 3 2 6 C2.66 6 3.32 6 4 6 C4.33 7.32 4.66 8.64 5 10 C1.125 8.125 1.125 8.125 0 7 C-0.04092937 4.66702567 -0.04241723 2.33294775 0 0 Z " fill="#E1373D" transform="translate(136,243)"/>
<path d="M0 0 C0.66 0.33 1.32 0.66 2 1 C2.6328125 3.50390625 2.6328125 3.50390625 3.125 6.5625 C3.29257812 7.57441406 3.46015625 8.58632812 3.6328125 9.62890625 C3.75398438 10.41136719 3.87515625 11.19382813 4 12 C3.34 12 2.68 12 2 12 C-0.05257931 8.55166676 -1.0632763 6.68338409 -0.6875 2.625 C-0.460625 1.75875 -0.23375 0.8925 0 0 Z " fill="#D46B75" transform="translate(386,236)"/>
<path d="M0 0 C1 4 2 8 3 12 C1.35 11.67 -0.3 11.34 -2 11 C-1.34 7.37 -0.68 3.74 0 0 Z " fill="#E13B40" transform="translate(164,209)"/>
<path d="M0 0 C2.6875 1.8125 2.6875 1.8125 5 4 C5 4.66 5 5.32 5 6 C1.75791433 5.64950425 0.38472296 5.43778819 -1.8125 2.9375 C-2.4003125 1.9784375 -2.4003125 1.9784375 -3 1 C-2.01 0.67 -1.02 0.34 0 0 Z " fill="#DC727E" transform="translate(386,309)"/>
<path d="M0 0 C0.66 0 1.32 0 2 0 C2 0.99 2 1.98 2 3 C3.65 3 5.3 3 7 3 C7 3.66 7 4.32 7 5 C5.02 5 3.04 5 1 5 C0.67 6.32 0.34 7.64 0 9 C0 6.03 0 3.06 0 0 Z " fill="#5A5A5A" transform="translate(215,298)"/>
<path d="M0 0 C0 0.66 0 1.32 0 2 C-1.98 2 -3.96 2 -6 2 C-6.33 2.99 -6.66 3.98 -7 5 C-7.99 4.67 -8.98 4.34 -10 4 C-10 3.34 -10 2.68 -10 2 C-6.5980513 -0.09350689 -3.94727588 -0.17942163 0 0 Z " fill="#D0595C" transform="translate(300,292)"/>
<path d="M0 0 C6.0546875 -0.1953125 6.0546875 -0.1953125 8 0 C8.66 0.66 9.32 1.32 10 2 C9.01 3.485 9.01 3.485 8 5 C4.5625 4.1875 4.5625 4.1875 1 3 C0.67 2.01 0.34 1.02 0 0 Z " fill="#BBBBBB" transform="translate(165,292)"/>
<path d="M0 0 C-3.25179812 2.21713508 -6.4213696 4.34832443 -10 6 C-9.67 4.68 -9.34 3.36 -9 2 C-8.34 2 -7.68 2 -7 2 C-7 1.34 -7 0.68 -7 0 C-3.98968256 -0.93423645 -3.13349732 -1.04449911 0 0 Z " fill="#DE5E65" transform="translate(175,243)"/>
<path d="M0 0 C0.66 0 1.32 0 2 0 C2.95024979 3.69541586 2.95024979 6.30458414 2 10 C1.34 10 0.68 10 0 10 C0 6.7 0 3.4 0 0 Z " fill="#E56165" transform="translate(161,201)"/>
<path d="M0 0 C0.66 0.33 1.32 0.66 2 1 C1.67 2.65 1.34 4.3 1 6 C-0.65 5.67 -2.3 5.34 -4 5 C-3.6875 3.0625 -3.6875 3.0625 -3 1 C-2.01 0.67 -1.02 0.34 0 0 Z " fill="#E3252E" transform="translate(251,180)"/>
<path d="M0 0 C2.97 0.495 2.97 0.495 6 1 C6 1.66 6 2.32 6 3 C4.02253397 3.73080266 2.01927511 4.39421747 0 5 C-0.66 4.67 -1.32 4.34 -2 4 C-1.34 2.68 -0.68 1.36 0 0 Z " fill="#EB1A23" transform="translate(267,161)"/>
<path d="M0 0 C0.33 0.99 0.66 1.98 1 3 C-1.95664519 4.4783226 -4.74229737 4.06032783 -8 4 C-8.33 3.34 -8.66 2.68 -9 2 C-6.03 1.34 -3.06 0.68 0 0 Z " fill="#D23A43" transform="translate(326,310)"/>
<path d="M0 0 C-0.99 1.485 -0.99 1.485 -2 3 C-5.125 3.1875 -5.125 3.1875 -8 3 C-7.67 2.01 -7.34 1.02 -7 0 C-4.05610218 -1.17755913 -3.10046087 -1.03348696 0 0 Z " fill="#D55458" transform="translate(304,312)"/>
<path d="M0 0 C0 0.66 0 1.32 0 2 C-2.31 2.33 -4.62 2.66 -7 3 C-7 2.01 -7 1.02 -7 0 C-4.3333581 -1.33332095 -2.83319697 -0.67102033 0 0 Z " fill="#F01923" transform="translate(375,228)"/>
<path d="M0 0 C0.99 0.33 1.98 0.66 3 1 C4.1875 3.5625 4.1875 3.5625 5 6 C4.01 6.33 3.02 6.66 2 7 C0 5 0 5 -0.125 2.375 C-0.08375 1.59125 -0.0425 0.8075 0 0 Z " fill="#D2696D" transform="translate(383,314)"/>
<path d="M0 0 C0 1.65 0 3.3 0 5 C-2.97 4.505 -2.97 4.505 -6 4 C-2.25 0 -2.25 0 0 0 Z " fill="#F11A1D" transform="translate(316,258)"/>
<path d="M0 0 C0.99 0 1.98 0 3 0 C2.67 1.98 2.34 3.96 2 6 C0.35 6 -1.3 6 -3 6 C-3 5.34 -3 4.68 -3 4 C-1.68 3.67 -0.36 3.34 1 3 C0.67 2.01 0.34 1.02 0 0 Z " fill="#EE1922" transform="translate(170,209)"/>
<path d="M0 0 C-0.33 0.99 -0.66 1.98 -1 3 C-1.99 3 -2.98 3 -4 3 C-4 4.32 -4 5.64 -4 7 C-5.32 6.67 -6.64 6.34 -8 6 C-4.61538462 0 -4.61538462 0 0 0 Z " fill="#DC383C" transform="translate(325,189)"/>
<path d="M0 0 C2 1 2 1 2.6328125 2.84765625 C2.79523438 3.57855469 2.95765625 4.30945313 3.125 5.0625 C3.29257812 5.79597656 3.46015625 6.52945313 3.6328125 7.28515625 C3.75398438 7.85105469 3.87515625 8.41695312 4 9 C2.68 8.67 1.36 8.34 0 8 C0 5.36 0 2.72 0 0 Z " fill="#DF585D" transform="translate(397,184)"/>
<path d="M0 0 C0.99 0 1.98 0 3 0 C3.66 1.98 4.32 3.96 5 6 C3.68 6 2.36 6 1 6 C0.67 4.02 0.34 2.04 0 0 Z " fill="#D34D54" transform="translate(245,304)"/>
<path d="M0 0 C0.33 0 0.66 0 1 0 C1 2.64 1 5.28 1 8 C0.01 8.33 -0.98 8.66 -2 9 C-1.125 1.125 -1.125 1.125 0 0 Z " fill="#DC454C" transform="translate(128,217)"/>
<path d="M0 0 C-2.55068845 2.35448165 -3.71017358 2.98327924 -7.25 3.1875 C-8.1575 3.125625 -9.065 3.06375 -10 3 C-7.7846105 -1.43077901 -4.3377361 -1.20492669 0 0 Z " fill="#DB3D41" transform="translate(372,212)"/>
<path d="M0 0 C0 3 0 3 -1 6 C-0.34 6.33 0.32 6.66 1 7 C-0.65 7 -2.3 7 -4 7 C-3.6875 4.625 -3.6875 4.625 -3 2 C-2.01 1.34 -1.02 0.68 0 0 Z " fill="#DE7C83" transform="translate(311,195)"/>
<path d="M0 0 C1.04449911 3.13349732 0.93423645 3.98968256 0 7 C-1.65 7.33 -3.3 7.66 -5 8 C-4.34 7.67 -3.68 7.34 -3 7 C-2.64587656 5.67203709 -2.31478446 4.33783393 -2 3 C-1.34 2.01 -0.68 1.02 0 0 Z " fill="#E28286" transform="translate(262,307)"/>
<path d="M0 0 C2.31 0 4.62 0 7 0 C7 1.32 7 2.64 7 4 C4.69 3.34 2.38 2.68 0 2 C0 1.34 0 0.68 0 0 Z " fill="#777777" transform="translate(145,285)"/>
<path d="M0 0 C2.35953094 2.35953094 2.49141413 3.77895617 3 7 C2.01 7 1.02 7 0 7 C-0.66 5.02 -1.32 3.04 -2 1 C-1.34 0.67 -0.68 0.34 0 0 Z " fill="#CE8082" transform="translate(348,258)"/>
<path d="M0 0 C-0.33 0.99 -0.66 1.98 -1 3 C-4.375 3.125 -4.375 3.125 -8 3 C-8.66 2.34 -9.32 1.68 -10 1 C-6.59437148 0.22157062 -3.49234244 -0.09978121 0 0 Z " fill="#DF3A42" transform="translate(152,252)"/>
<path d="M0 0 C1.99097846 2.98646769 2.94124926 5.59687262 4 9 C2.68 8.67 1.36 8.34 0 8 C0 5.36 0 2.72 0 0 Z " fill="#DB5159" transform="translate(300,215)"/>
<path d="M0 0 C1.65 0 3.3 0 5 0 C5.33 0.66 5.66 1.32 6 2 C2.78548731 3.60725635 -0.43612536 3.05748185 -4 3 C-2.68 2.67 -1.36 2.34 0 2 C0 1.34 0 0.68 0 0 Z " fill="#D1444D" transform="translate(222,202)"/>
<path d="M0 0 C-1.24546405 3.73639216 -2.63404953 4.18756513 -6 6 C-6.33 5.01 -6.66 4.02 -7 3 C-3.375 0 -3.375 0 0 0 Z " fill="#DC4046" transform="translate(245,192)"/>
<path d="M0 0 C0.33 0.66 0.66 1.32 1 2 C1.99 1.67 2.98 1.34 4 1 C4.66 1.99 5.32 2.98 6 4 C5.67 4.66 5.34 5.32 5 6 C3.0625 5.25 3.0625 5.25 1 4 C0.25 1.875 0.25 1.875 0 0 Z " fill="#A0A0A0" transform="translate(215,308)"/>
<path d="M0 0 C0.99 0 1.98 0 3 0 C3 0.66 3 1.32 3 2 C3.66 2 4.32 2 5 2 C4.67 3.98 4.34 5.96 4 8 C2 5 2 5 2 2 C1.34 2 0.68 2 0 2 C0 1.34 0 0.68 0 0 Z " fill="#E36067" transform="translate(333,292)"/>
<path d="M0 0 C0.99 0 1.98 0 3 0 C3 1.65 3 3.3 3 5 C2.01 5.33 1.02 5.66 0 6 C-1.125 2.25 -1.125 2.25 0 0 Z " fill="#ADADAD" transform="translate(188,284)"/>
<path d="M0 0 C1.125 1.75 1.125 1.75 2 4 C1.125 6.25 1.125 6.25 0 8 C-0.66 8 -1.32 8 -2 8 C-1.125 2.25 -1.125 2.25 0 0 Z " fill="#DC8C8E" transform="translate(323,256)"/>
<path d="M0 0 C0.66 0.33 1.32 0.66 2 1 C0.1875 4 0.1875 4 -2 7 C-2.99 7 -3.98 7 -5 7 C-3.75023244 3.34683329 -3.32901247 2.21934164 0 0 Z " fill="#DC5C5C" transform="translate(297,238)"/>
<path d="M0 0 C1.32 0 2.64 0 4 0 C4.12375 0.639375 4.2475 1.27875 4.375 1.9375 C4.684375 2.9584375 4.684375 2.9584375 5 4 C5.66 4.33 6.32 4.66 7 5 C6.01 5.495 6.01 5.495 5 6 C3.31237149 4.3545622 1.6459651 2.68711423 0 1 C0 0.67 0 0.34 0 0 Z " fill="#DD5D62" transform="translate(281,227)"/>
<path d="M0 0 C1.65 0 3.3 0 5 0 C3.68 0.33 2.36 0.66 1 1 C1 1.66 1 2.32 1 3 C1.99 3.33 2.98 3.66 4 4 C3.34 4 2.68 4 2 4 C2 4.66 2 5.32 2 6 C1.01 5.67 0.02 5.34 -1 5 C-0.67 3.35 -0.34 1.7 0 0 Z " fill="#EF2F37" transform="translate(178,216)"/>
<path d="M0 0 C3.65316671 1.24976756 4.78065836 1.67098753 7 5 C5.68 5 4.36 5 3 5 C3 4.34 3 3.68 3 3 C2.01 3 1.02 3 0 3 C0 2.01 0 1.02 0 0 Z " fill="#DB4048" transform="translate(186,191)"/>
<path d="M0 0 C0.66 0 1.32 0 2 0 C1.34 2.31 0.68 4.62 0 7 C-1.32 6.34 -2.64 5.68 -4 5 C-2.71937515 3.2925002 -1.38232443 1.62626404 0 0 Z " fill="#D6686C" transform="translate(328,305)"/>
<path d="M0 0 C2.475 0.99 2.475 0.99 5 2 C5 2.66 5 3.32 5 4 C4.34 4 3.68 4 3 4 C2.67 4.66 2.34 5.32 2 6 C1.01 4.68 0.02 3.36 -1 2 C-0.67 1.34 -0.34 0.68 0 0 Z " fill="#DC6264" transform="translate(260,299)"/>
<path d="M0 0 C0.66 0 1.32 0 2 0 C3 3 3 3 2 6 C1.01 5.67 0.02 5.34 -1 5 C-0.67 3.35 -0.34 1.7 0 0 Z " fill="#D1636D" transform="translate(356,284)"/>
<path d="M0 0 C2.97 0.33 5.94 0.66 9 1 C9 1.99 9 2.98 9 4 C6.69 3.34 4.38 2.68 2 2 C1.67 2.66 1.34 3.32 1 4 C0.67 2.68 0.34 1.36 0 0 Z " fill="#E45256" transform="translate(201,196)"/>
<path d="M0 0 C2.31 0.66 4.62 1.32 7 2 C7 2.66 7 3.32 7 4 C5.68 4 4.36 4 3 4 C3 3.34 3 2.68 3 2 C1.68 1.67 0.36 1.34 -1 1 C-0.67 0.67 -0.34 0.34 0 0 Z " fill="#DB383F" transform="translate(178,187)"/>
<path d="" fill="#FF0000" transform="translate(0,0)"/>
</svg>
